<svg width="252" height="1223" viewBox="0 0 252 1223" fill="none" xmlns="http://www.w3.org/2000/svg" opacity="0.05">
<mask id="mask0_100_1479" style="mask-type:luminance" maskUnits="userSpaceOnUse" x="-73" y="-152" width="384" height="1380">
<path d="M310.43 -151.81H-72.86V1227.43H310.43V-151.81Z" fill="white"/>
</mask>
<g mask="url(#mask0_100_1479)">
<path d="M84.85 96.98C76.32 100.1 63.67 103.1 49.1 101.48C55.43 92.88 60.74 83.53 64.91 73.58C72.14 56.3 75.65 38.11 75.34 19.51C75.16 8.32999 73.58 -2.77001 70.67 -13.49L69.71 -17.01H10.75L13.69 -10.33C17.99 -0.550018 20.25 9.78999 20.43 20.41C20.61 31.38 18.53 42.14 14.25 52.37C9.98001 62.56 3.89001 71.49 -3.87 78.96L-4.23999 79.3C-29.09 73.98 -55.35 82.89 -71.75 102.43L-72.87 103.76V150.83L-69.69 151.95C-69.09 152.16 -61.89 154.61 -49.79 154.61C-37.69 154.61 -19.82 152.03 1.03001 141.81C20.92 151.7 40.87 154.45 56.88 154.45C71.25 154.45 82.44 152.24 87.59 151L91.24 150.12V94.63L84.84 96.97L84.85 96.98ZM-18.62 87.32C-17.21 87.32 -15.8 87.37 -14.39 87.47C-16.59 88.96 -18.88 90.34 -21.24 91.61C-32.19 97.52 -44.58 100.8 -57.01 101.17C-46.25 92.22 -32.57 87.32 -18.63 87.32H-18.62ZM-63.33 143.77V110.64C-63.15 110.64 -62.96 110.64 -62.78 110.66C-61.64 110.7 -60.49 110.73 -59.35 110.73C-44.58 110.73 -29.73 107.02 -16.71 99.99C-10.56 96.67 -4.83999 92.67 0.290009 88.09C0.290009 88.09 2.00001 86.68 5.32001 83.23C6.25001 82.26 6.76 81.7 7.02 81.37C13.7 73.98 19.08 65.51 23.04 56.06C27.84 44.6 30.16 32.56 29.96 20.26C29.8 10.76 28.15 1.46998 25.04 -7.47002H62.36C64.49 1.37998 65.65 10.5 65.8 19.67C66.09 36.95 62.82 53.85 56.1 69.91C51.57 80.74 45.58 90.83 38.31 99.89C37.94 100.35 37.55 100.81 37.17 101.27L36.71 101.82C35.31 103.49 34.13 104.84 33 106.08C32.22 106.93 31.41 107.79 30.6 108.62C29.06 109.99 12.97 124.18 0.100006 131.61C-0.279991 131.81 -0.669998 132.01 -1.05 132.2L-1.12999 132.24C-31.94 147.96 -55.19 145.44 -63.35 143.77H-63.33ZM81.72 142.55C69.24 145.05 40.58 148.48 11.11 135.97C11.23 135.89 11.34 135.81 11.46 135.74C11.6 135.64 11.75 135.54 11.89 135.45C12.19 135.25 12.49 135.04 12.79 134.84C12.93 134.75 13.06 134.65 13.2 134.56C13.52 134.34 13.85 134.11 14.17 133.88C14.28 133.8 14.39 133.73 14.5 133.65C15.38 133.03 16.25 132.41 17.11 131.78C17.19 131.72 17.26 131.67 17.34 131.61C17.69 131.35 18.04 131.1 18.39 130.84C18.51 130.75 18.62 130.67 18.74 130.58C19.05 130.35 19.35 130.12 19.66 129.89C19.78 129.8 19.91 129.7 20.03 129.61C20.33 129.38 20.63 129.15 20.93 128.93C21.04 128.84 21.16 128.76 21.27 128.67C21.6 128.42 21.92 128.17 22.25 127.92C22.33 127.86 22.4 127.8 22.48 127.75C23.3 127.12 24.09 126.49 24.87 125.88C24.91 125.85 24.95 125.82 24.99 125.79C25.33 125.52 25.66 125.25 26 124.99C26.08 124.93 26.16 124.87 26.23 124.8C26.53 124.56 26.82 124.33 27.1 124.1C27.18 124.04 27.26 123.97 27.33 123.91C27.62 123.68 27.9 123.45 28.18 123.22C28.25 123.17 28.31 123.11 28.38 123.06C28.69 122.81 28.99 122.56 29.28 122.32C29.31 122.29 29.34 122.27 29.37 122.24C30.37 121.41 31.3 120.64 32.15 119.92C32.18 119.89 32.22 119.86 32.25 119.84C32.49 119.63 32.73 119.43 32.96 119.24C33 119.21 33.03 119.18 33.07 119.15C33.29 118.96 33.51 118.78 33.71 118.6C33.74 118.57 33.77 118.55 33.8 118.52C34.03 118.32 34.25 118.13 34.46 117.95C35.12 117.38 35.66 116.91 36.09 116.53C36.09 116.53 36.1 116.52 36.11 116.51C36.24 116.39 36.37 116.28 36.48 116.19C36.48 116.19 36.48 116.19 36.49 116.19C36.82 115.89 37.04 115.7 37.11 115.64L37.35 115.41C38.26 114.47 39.17 113.51 40.06 112.54C40.39 112.18 40.72 111.81 41.06 111.43C41.17 111.31 41.28 111.18 41.39 111.06C41.62 110.8 41.85 110.54 42.08 110.27C42.12 110.22 42.16 110.18 42.2 110.13C57.6 112.98 71.38 110.99 81.73 108.04V142.58L81.72 142.55Z" fill="#3E3E3E"/>
<path d="M296.37 -37.83C287.84 -34.71 275.19 -31.71 260.62 -33.33C266.95 -41.93 272.26 -51.28 276.43 -61.23C283.66 -78.51 287.17 -96.7 286.86 -115.3C286.68 -126.48 285.1 -137.58 282.19 -148.3L281.23 -151.82H222.27L225.21 -145.14C229.51 -135.36 231.77 -125.02 231.95 -114.4C232.13 -103.43 230.05 -92.67 225.77 -82.44C221.5 -72.25 215.41 -63.32 207.65 -55.85L207.28 -55.51C182.43 -60.83 156.17 -51.92 139.77 -32.38L138.65 -31.05V16.02L141.83 17.14C142.43 17.35 149.63 19.8 161.73 19.8C173.83 19.8 191.7 17.22 212.55 6.99998C232.44 16.89 252.39 19.64 268.4 19.64C282.77 19.64 293.96 17.43 299.11 16.19L302.76 15.31V-40.18L296.36 -37.84L296.37 -37.83ZM192.9 -47.5C194.31 -47.5 195.72 -47.45 197.13 -47.35C194.93 -45.86 192.64 -44.48 190.28 -43.21C179.33 -37.3 166.94 -34.02 154.51 -33.65C165.27 -42.6 178.95 -47.5 192.89 -47.5H192.9ZM148.19 8.95999V-24.17C148.37 -24.17 148.56 -24.17 148.74 -24.15C149.88 -24.11 151.03 -24.08 152.17 -24.08C166.94 -24.08 181.79 -27.79 194.81 -34.82C200.96 -38.14 206.68 -42.14 211.81 -46.72C211.81 -46.72 213.52 -48.13 216.84 -51.58C217.77 -52.55 218.28 -53.11 218.54 -53.44C225.22 -60.83 230.6 -69.3 234.56 -78.75C239.36 -90.21 241.68 -102.25 241.48 -114.55C241.32 -124.05 239.67 -133.34 236.56 -142.28H273.88C276.01 -133.43 277.17 -124.31 277.32 -115.14C277.61 -97.86 274.34 -80.96 267.62 -64.9C263.09 -54.07 257.1 -43.98 249.83 -34.92C249.46 -34.46 249.07 -34 248.69 -33.54L248.23 -32.99C246.83 -31.32 245.65 -29.97 244.52 -28.73C243.74 -27.88 242.93 -27.02 242.12 -26.19C240.58 -24.82 224.49 -10.63 211.62 -3.20001C211.24 -3.00002 210.85 -2.80002 210.47 -2.61002L210.39 -2.57001C179.58 13.15 156.33 10.63 148.17 8.95999H148.19ZM293.24 7.73999C280.76 10.24 252.1 13.67 222.63 1.15999C222.75 1.07999 222.86 1 222.98 0.929993C223.12 0.829987 223.27 0.72998 223.41 0.639984C223.71 0.439987 224.01 0.22998 224.31 0.0299835C224.45 -0.0600128 224.58 -0.160019 224.72 -0.250015C225.04 -0.470016 225.37 -0.700012 225.69 -0.930008C225.8 -1.01001 225.91 -1.08002 226.02 -1.16002C226.9 -1.78001 227.77 -2.40001 228.63 -3.03001C228.71 -3.09001 228.78 -3.14001 228.86 -3.20001C229.21 -3.46001 229.56 -3.71002 229.91 -3.97002C230.03 -4.06001 230.14 -4.14001 230.26 -4.23001C230.57 -4.46001 230.87 -4.69002 231.18 -4.92001C231.3 -5.01001 231.43 -5.11002 231.55 -5.20001C231.85 -5.43001 232.15 -5.66002 232.45 -5.88002C232.56 -5.97002 232.68 -6.05002 232.79 -6.14001C233.12 -6.39001 233.44 -6.64001 233.77 -6.89001C233.85 -6.95001 233.92 -7.01001 234 -7.06001C234.82 -7.69002 235.61 -8.32001 236.39 -8.93001C236.43 -8.96001 236.47 -8.99002 236.51 -9.02002C236.85 -9.29002 237.18 -9.56001 237.52 -9.82001C237.6 -9.88 237.68 -9.94 237.75 -10.01C238.05 -10.25 238.34 -10.48 238.62 -10.71C238.7 -10.77 238.78 -10.84 238.85 -10.9C239.14 -11.13 239.42 -11.36 239.7 -11.59C239.77 -11.64 239.83 -11.7 239.9 -11.75C240.21 -12 240.51 -12.25 240.8 -12.49C240.83 -12.52 240.86 -12.54 240.89 -12.57C241.89 -13.4 242.82 -14.17 243.67 -14.89C243.7 -14.92 243.74 -14.95 243.77 -14.97C244.01 -15.18 244.25 -15.38 244.48 -15.57C244.52 -15.6 244.55 -15.63 244.59 -15.66C244.81 -15.85 245.03 -16.03 245.23 -16.21C245.26 -16.24 245.29 -16.26 245.32 -16.29C245.55 -16.49 245.77 -16.68 245.98 -16.86C246.64 -17.43 247.18 -17.9 247.61 -18.28C247.61 -18.28 247.62 -18.29 247.63 -18.3C247.76 -18.42 247.89 -18.53 248 -18.62C248 -18.62 248 -18.62 248.01 -18.62C248.34 -18.92 248.56 -19.11 248.63 -19.17L248.87 -19.4C249.78 -20.34 250.69 -21.3 251.58 -22.27C251.91 -22.63 252.24 -23 252.58 -23.38C252.69 -23.5 252.8 -23.63 252.91 -23.75C253.14 -24.01 253.37 -24.27 253.6 -24.54C253.64 -24.59 253.68 -24.63 253.72 -24.68C269.12 -21.83 282.9 -23.82 293.25 -26.77V7.76999L293.24 7.73999Z" fill="#3E3E3E"/>
<path d="M84.85 413.61C76.32 416.73 63.67 419.73 49.1 418.11C55.43 409.51 60.74 400.16 64.91 390.21C72.14 372.93 75.65 354.74 75.34 336.14C75.16 324.96 73.58 313.86 70.67 303.14L69.71 299.62H10.75L13.69 306.3C17.99 316.08 20.25 326.42 20.43 337.04C20.61 348.01 18.53 358.77 14.25 369C9.98001 379.19 3.89001 388.12 -3.87 395.59L-4.23999 395.93C-29.09 390.61 -55.35 399.52 -71.75 419.06L-72.87 420.39V467.46L-69.69 468.58C-69.09 468.79 -61.89 471.24 -49.79 471.24C-37.69 471.24 -19.82 468.66 1.03001 458.44C20.92 468.33 40.87 471.08 56.88 471.08C71.25 471.08 82.44 468.87 87.59 467.63L91.24 466.75V411.26L84.84 413.6L84.85 413.61ZM-18.62 403.94C-17.21 403.94 -15.8 403.99 -14.39 404.09C-16.59 405.58 -18.88 406.96 -21.24 408.23C-32.19 414.14 -44.58 417.42 -57.01 417.79C-46.25 408.84 -32.57 403.94 -18.63 403.94H-18.62ZM-63.33 460.4V427.27C-63.15 427.27 -62.96 427.27 -62.78 427.29C-61.64 427.33 -60.49 427.36 -59.35 427.36C-44.58 427.36 -29.73 423.65 -16.71 416.62C-10.56 413.3 -4.83999 409.3 0.290009 404.72C0.290009 404.72 2.00001 403.31 5.32001 399.86C6.25001 398.89 6.76 398.33 7.02 398C13.7 390.61 19.08 382.14 23.04 372.69C27.84 361.23 30.16 349.19 29.96 336.89C29.8 327.39 28.15 318.1 25.04 309.16H62.36C64.49 318.01 65.65 327.13 65.8 336.3C66.09 353.58 62.82 370.48 56.1 386.54C51.57 397.37 45.58 407.46 38.31 416.52C37.94 416.98 37.55 417.44 37.17 417.9L36.71 418.45C35.31 420.12 34.13 421.47 33 422.71C32.22 423.56 31.41 424.42 30.6 425.25C29.06 426.62 12.97 440.81 0.100006 448.24C-0.279991 448.44 -0.669998 448.64 -1.05 448.83L-1.12999 448.87C-31.94 464.59 -55.19 462.07 -63.35 460.4H-63.33ZM81.72 459.18C69.24 461.68 40.58 465.11 11.11 452.6C11.23 452.52 11.34 452.44 11.46 452.37C11.6 452.27 11.75 452.17 11.89 452.08C12.19 451.88 12.49 451.67 12.79 451.47C12.93 451.38 13.06 451.28 13.2 451.19C13.52 450.97 13.85 450.74 14.17 450.51C14.28 450.43 14.39 450.36 14.5 450.28C15.38 449.66 16.25 449.04 17.11 448.41C17.19 448.35 17.26 448.3 17.34 448.24C17.69 447.98 18.04 447.73 18.39 447.47C18.51 447.38 18.62 447.3 18.74 447.21C19.05 446.98 19.35 446.75 19.66 446.52C19.78 446.43 19.91 446.33 20.03 446.24C20.33 446.01 20.63 445.78 20.93 445.56C21.04 445.47 21.16 445.39 21.27 445.3C21.6 445.05 21.92 444.8 22.25 444.55C22.33 444.49 22.4 444.43 22.48 444.38C23.3 443.75 24.09 443.12 24.87 442.51C24.91 442.48 24.95 442.45 24.99 442.42C25.33 442.15 25.66 441.88 26 441.62C26.08 441.56 26.16 441.5 26.23 441.43C26.53 441.19 26.82 440.96 27.1 440.73C27.18 440.67 27.26 440.6 27.33 440.54C27.62 440.31 27.9 440.08 28.18 439.85C28.25 439.8 28.31 439.74 28.38 439.69C28.69 439.44 28.99 439.19 29.28 438.95C29.31 438.92 29.34 438.9 29.37 438.87C30.37 438.04 31.3 437.27 32.15 436.55C32.18 436.52 32.22 436.49 32.25 436.47C32.49 436.26 32.73 436.06 32.96 435.87C33 435.84 33.03 435.81 33.07 435.78C33.29 435.59 33.51 435.41 33.71 435.23C33.74 435.2 33.77 435.18 33.8 435.15C34.03 434.95 34.25 434.76 34.46 434.58C35.12 434.01 35.66 433.54 36.09 433.16C36.09 433.16 36.1 433.15 36.11 433.14C36.24 433.02 36.37 432.91 36.48 432.82C36.48 432.82 36.48 432.82 36.49 432.82C36.82 432.52 37.04 432.33 37.11 432.27L37.35 432.04C38.26 431.1 39.17 430.14 40.06 429.17C40.39 428.81 40.72 428.44 41.06 428.06C41.17 427.94 41.28 427.81 41.39 427.69C41.62 427.43 41.85 427.17 42.08 426.9C42.12 426.85 42.16 426.81 42.2 426.76C57.6 429.61 71.38 427.62 81.73 424.67V459.21L81.72 459.18Z" fill="#3E3E3E"/>
<path d="M296.37 278.79C287.84 281.91 275.19 284.91 260.62 283.29C266.95 274.69 272.26 265.34 276.43 255.39C283.66 238.11 287.17 219.92 286.86 201.32C286.68 190.14 285.1 179.04 282.19 168.32L281.23 164.8H222.27L225.21 171.48C229.51 181.26 231.77 191.6 231.95 202.22C232.13 213.19 230.05 223.95 225.77 234.18C221.5 244.37 215.41 253.3 207.65 260.77L207.28 261.11C182.43 255.79 156.17 264.7 139.77 284.24L138.65 285.57V332.64L141.83 333.76C142.43 333.97 149.63 336.42 161.73 336.42C173.83 336.42 191.7 333.84 212.55 323.62C232.44 333.51 252.39 336.26 268.4 336.26C282.77 336.26 293.96 334.05 299.11 332.81L302.76 331.93V276.44L296.36 278.78L296.37 278.79ZM192.9 269.13C194.31 269.13 195.72 269.18 197.13 269.28C194.93 270.77 192.64 272.15 190.28 273.42C179.33 279.33 166.94 282.61 154.51 282.98C165.27 274.03 178.95 269.13 192.89 269.13H192.9ZM148.19 325.58V292.45C148.37 292.45 148.56 292.45 148.74 292.47C149.88 292.51 151.03 292.54 152.17 292.54C166.94 292.54 181.79 288.83 194.81 281.8C200.96 278.48 206.68 274.48 211.81 269.9C211.81 269.9 213.52 268.49 216.84 265.04C217.77 264.07 218.28 263.51 218.54 263.18C225.22 255.79 230.6 247.32 234.56 237.87C239.36 226.41 241.68 214.37 241.48 202.07C241.32 192.57 239.67 183.28 236.56 174.34H273.88C276.01 183.19 277.17 192.31 277.32 201.48C277.61 218.76 274.34 235.66 267.62 251.72C263.09 262.55 257.1 272.64 249.83 281.7C249.46 282.16 249.07 282.62 248.69 283.08L248.23 283.63C246.83 285.3 245.65 286.65 244.52 287.89C243.74 288.74 242.93 289.6 242.12 290.43C240.58 291.8 224.49 305.99 211.62 313.42C211.24 313.62 210.85 313.82 210.47 314.01L210.39 314.05C179.58 329.77 156.33 327.25 148.17 325.58H148.19ZM293.24 324.36C280.76 326.86 252.1 330.29 222.63 317.78C222.75 317.7 222.86 317.62 222.98 317.55C223.12 317.45 223.27 317.35 223.41 317.26C223.71 317.06 224.01 316.85 224.31 316.65C224.45 316.56 224.58 316.46 224.72 316.37C225.04 316.15 225.37 315.92 225.69 315.69C225.8 315.61 225.91 315.54 226.02 315.46C226.9 314.84 227.77 314.22 228.63 313.59C228.71 313.53 228.78 313.48 228.86 313.42C229.21 313.16 229.56 312.91 229.91 312.65C230.03 312.56 230.14 312.48 230.26 312.39C230.57 312.16 230.87 311.93 231.18 311.7C231.3 311.61 231.43 311.51 231.55 311.42C231.85 311.19 232.15 310.96 232.45 310.74C232.56 310.65 232.68 310.57 232.79 310.48C233.12 310.23 233.44 309.98 233.77 309.73C233.85 309.67 233.92 309.61 234 309.56C234.82 308.93 235.61 308.3 236.39 307.69C236.43 307.66 236.47 307.63 236.51 307.6C236.85 307.33 237.18 307.06 237.52 306.8C237.6 306.74 237.68 306.68 237.75 306.61C238.05 306.37 238.34 306.14 238.62 305.91C238.7 305.85 238.78 305.78 238.85 305.72C239.14 305.49 239.42 305.26 239.7 305.03C239.77 304.98 239.83 304.92 239.9 304.87C240.21 304.62 240.51 304.37 240.8 304.13C240.83 304.1 240.86 304.08 240.89 304.05C241.89 303.22 242.82 302.45 243.67 301.73C243.7 301.7 243.74 301.67 243.77 301.65C244.01 301.44 244.25 301.24 244.48 301.05C244.52 301.02 244.55 300.99 244.59 300.96C244.81 300.77 245.03 300.59 245.23 300.41C245.26 300.38 245.29 300.36 245.32 300.33C245.55 300.13 245.77 299.94 245.98 299.76C246.64 299.19 247.18 298.72 247.61 298.34C247.61 298.34 247.62 298.33 247.63 298.32C247.76 298.2 247.89 298.09 248 298C248 298 248 298 248.01 298C248.34 297.7 248.56 297.51 248.63 297.45L248.87 297.22C249.78 296.28 250.69 295.32 251.58 294.35C251.91 293.99 252.24 293.62 252.58 293.24C252.69 293.12 252.8 292.99 252.91 292.87C253.14 292.61 253.37 292.35 253.6 292.08C253.64 292.03 253.68 291.99 253.72 291.94C269.12 294.79 282.9 292.8 293.25 289.85V324.39L293.24 324.36Z" fill="#3E3E3E"/>
<path d="M84.85 730.23C76.32 733.35 63.67 736.35 49.1 734.73C55.43 726.13 60.74 716.78 64.91 706.83C72.14 689.55 75.65 671.36 75.34 652.76C75.16 641.58 73.58 630.48 70.67 619.76L69.71 616.24H10.75L13.69 622.92C17.99 632.7 20.25 643.04 20.43 653.66C20.61 664.63 18.53 675.39 14.25 685.62C9.98001 695.81 3.89001 704.74 -3.87 712.21L-4.23999 712.55C-29.09 707.23 -55.35 716.14 -71.75 735.68L-72.87 737.01V784.08L-69.69 785.2C-69.09 785.41 -61.89 787.86 -49.79 787.86C-37.69 787.86 -19.82 785.28 1.03001 775.06C20.92 784.95 40.87 787.7 56.88 787.7C71.25 787.7 82.44 785.49 87.59 784.25L91.24 783.37V727.88L84.84 730.22L84.85 730.23ZM-18.62 720.57C-17.21 720.57 -15.8 720.62 -14.39 720.72C-16.59 722.21 -18.88 723.59 -21.24 724.86C-32.19 730.77 -44.58 734.05 -57.01 734.42C-46.25 725.47 -32.57 720.57 -18.63 720.57H-18.62ZM-63.33 777.02V743.89C-63.15 743.89 -62.96 743.89 -62.78 743.91C-61.64 743.95 -60.49 743.98 -59.35 743.98C-44.58 743.98 -29.73 740.27 -16.71 733.24C-10.56 729.92 -4.83999 725.92 0.290009 721.34C0.290009 721.34 2.00001 719.93 5.32001 716.48C6.25001 715.51 6.76 714.95 7.02 714.62C13.7 707.23 19.08 698.76 23.04 689.31C27.84 677.85 30.16 665.81 29.96 653.51C29.8 644.01 28.15 634.72 25.04 625.78H62.36C64.49 634.63 65.65 643.75 65.8 652.92C66.09 670.2 62.82 687.1 56.1 703.16C51.57 713.99 45.58 724.08 38.31 733.14C37.94 733.6 37.55 734.06 37.17 734.52L36.71 735.07C35.31 736.74 34.13 738.09 33 739.33C32.22 740.18 31.41 741.04 30.6 741.87C29.06 743.24 12.97 757.43 0.100006 764.86C-0.279991 765.06 -0.669998 765.26 -1.05 765.45L-1.12999 765.49C-31.94 781.21 -55.19 778.69 -63.35 777.02H-63.33ZM81.72 775.8C69.24 778.3 40.58 781.73 11.11 769.22C11.23 769.14 11.34 769.06 11.46 768.99C11.6 768.89 11.75 768.79 11.89 768.7C12.19 768.5 12.49 768.29 12.79 768.09C12.93 768 13.06 767.9 13.2 767.81C13.52 767.59 13.85 767.36 14.17 767.13C14.28 767.05 14.39 766.98 14.5 766.9C15.38 766.28 16.25 765.66 17.11 765.03C17.19 764.97 17.26 764.92 17.34 764.86C17.69 764.6 18.04 764.35 18.39 764.09C18.51 764 18.62 763.92 18.74 763.83C19.05 763.6 19.35 763.37 19.66 763.14C19.78 763.05 19.91 762.95 20.03 762.86C20.33 762.63 20.63 762.4 20.93 762.18C21.04 762.09 21.16 762.01 21.27 761.92C21.6 761.67 21.92 761.42 22.25 761.17C22.33 761.11 22.4 761.05 22.48 761C23.3 760.37 24.09 759.74 24.87 759.13C24.91 759.1 24.95 759.07 24.99 759.04C25.33 758.77 25.66 758.5 26 758.24C26.08 758.18 26.16 758.12 26.23 758.05C26.53 757.81 26.82 757.58 27.1 757.35C27.18 757.29 27.26 757.22 27.33 757.16C27.62 756.93 27.9 756.7 28.18 756.47C28.25 756.42 28.31 756.36 28.38 756.31C28.69 756.06 28.99 755.81 29.28 755.57C29.31 755.54 29.34 755.52 29.37 755.49C30.37 754.66 31.3 753.89 32.15 753.17C32.18 753.14 32.22 753.11 32.25 753.09C32.49 752.88 32.73 752.68 32.96 752.49C33 752.46 33.03 752.43 33.07 752.4C33.29 752.21 33.51 752.03 33.71 751.85C33.74 751.82 33.77 751.8 33.8 751.77C34.03 751.57 34.25 751.38 34.46 751.2C35.12 750.63 35.66 750.16 36.09 749.78C36.09 749.78 36.1 749.77 36.11 749.76C36.24 749.64 36.37 749.53 36.48 749.44C36.48 749.44 36.48 749.44 36.49 749.44C36.82 749.14 37.04 748.95 37.11 748.89L37.35 748.66C38.26 747.72 39.17 746.76 40.06 745.79C40.39 745.43 40.72 745.06 41.06 744.68C41.17 744.56 41.28 744.43 41.39 744.31C41.62 744.05 41.85 743.79 42.08 743.52C42.12 743.47 42.16 743.43 42.2 743.38C57.6 746.23 71.38 744.24 81.73 741.29V775.83L81.72 775.8Z" fill="#3E3E3E"/>
<path d="M296.37 595.42C287.84 598.54 275.19 601.54 260.62 599.92C266.95 591.32 272.26 581.97 276.43 572.02C283.66 554.74 287.17 536.55 286.86 517.95C286.68 506.77 285.1 495.67 282.19 484.95L281.23 481.43H222.27L225.21 488.11C229.51 497.89 231.77 508.23 231.95 518.85C232.13 529.82 230.05 540.58 225.77 550.81C221.5 561 215.41 569.93 207.65 577.4L207.28 577.74C182.43 572.42 156.17 581.33 139.77 600.87L138.65 602.2V649.27L141.83 650.39C142.43 650.6 149.63 653.05 161.73 653.05C173.83 653.05 191.7 650.47 212.55 640.25C232.44 650.14 252.39 652.89 268.4 652.89C282.77 652.89 293.96 650.68 299.11 649.44L302.76 648.56V593.07L296.36 595.41L296.37 595.42ZM192.9 585.75C194.31 585.75 195.72 585.8 197.13 585.9C194.93 587.39 192.64 588.77 190.28 590.04C179.33 595.95 166.94 599.23 154.51 599.6C165.27 590.65 178.95 585.75 192.89 585.75H192.9ZM148.19 642.21V609.08C148.37 609.08 148.56 609.08 148.74 609.1C149.88 609.14 151.03 609.17 152.17 609.17C166.94 609.17 181.79 605.46 194.81 598.43C200.96 595.11 206.68 591.11 211.81 586.53C211.81 586.53 213.52 585.12 216.84 581.67C217.77 580.7 218.28 580.14 218.54 579.81C225.22 572.42 230.6 563.95 234.56 554.5C239.36 543.04 241.68 531 241.48 518.7C241.32 509.2 239.67 499.91 236.56 490.97H273.88C276.01 499.82 277.17 508.94 277.32 518.11C277.61 535.39 274.34 552.29 267.62 568.35C263.09 579.18 257.1 589.27 249.83 598.33C249.46 598.79 249.07 599.25 248.69 599.71L248.23 600.26C246.83 601.93 245.65 603.28 244.52 604.52C243.74 605.37 242.93 606.23 242.12 607.06C240.58 608.43 224.49 622.62 211.62 630.05C211.24 630.25 210.85 630.45 210.47 630.64L210.39 630.68C179.58 646.4 156.33 643.88 148.17 642.21H148.19ZM293.24 640.99C280.76 643.49 252.1 646.92 222.63 634.41C222.75 634.33 222.86 634.25 222.98 634.18C223.12 634.08 223.27 633.98 223.41 633.89C223.71 633.69 224.01 633.48 224.31 633.28C224.45 633.19 224.58 633.09 224.72 633C225.04 632.78 225.37 632.55 225.69 632.32C225.8 632.24 225.91 632.17 226.02 632.09C226.9 631.47 227.77 630.85 228.63 630.22C228.71 630.16 228.78 630.11 228.86 630.05C229.21 629.79 229.56 629.54 229.91 629.28C230.03 629.19 230.14 629.11 230.26 629.02C230.57 628.79 230.87 628.56 231.18 628.33C231.3 628.24 231.43 628.14 231.55 628.05C231.85 627.82 232.15 627.59 232.45 627.37C232.56 627.28 232.68 627.2 232.79 627.11C233.12 626.86 233.44 626.61 233.77 626.36C233.85 626.3 233.92 626.24 234 626.19C234.82 625.56 235.61 624.93 236.39 624.32C236.43 624.29 236.47 624.26 236.51 624.23C236.85 623.96 237.18 623.69 237.52 623.43C237.6 623.37 237.68 623.31 237.75 623.24C238.05 623 238.34 622.77 238.62 622.54C238.7 622.48 238.78 622.41 238.85 622.35C239.14 622.12 239.42 621.89 239.7 621.66C239.77 621.61 239.83 621.55 239.9 621.5C240.21 621.25 240.51 621 240.8 620.76C240.83 620.73 240.86 620.71 240.89 620.68C241.89 619.85 242.82 619.08 243.67 618.36C243.7 618.33 243.74 618.3 243.77 618.28C244.01 618.07 244.25 617.87 244.48 617.68C244.52 617.65 244.55 617.62 244.59 617.59C244.81 617.4 245.03 617.22 245.23 617.04C245.26 617.01 245.29 616.99 245.32 616.96C245.55 616.76 245.77 616.57 245.98 616.39C246.64 615.82 247.18 615.35 247.61 614.97C247.61 614.97 247.62 614.96 247.63 614.95C247.76 614.83 247.89 614.72 248 614.63C248 614.63 248 614.63 248.01 614.63C248.34 614.33 248.56 614.14 248.63 614.08L248.87 613.85C249.78 612.91 250.69 611.95 251.58 610.98C251.91 610.62 252.24 610.25 252.58 609.87C252.69 609.75 252.8 609.62 252.91 609.5C253.14 609.24 253.37 608.98 253.6 608.71C253.64 608.66 253.68 608.62 253.72 608.57C269.12 611.42 282.9 609.43 293.25 606.48V641.02L293.24 640.99Z" fill="#3E3E3E"/>
<path d="M84.85 1046.86C76.32 1049.98 63.67 1052.98 49.1 1051.36C55.43 1042.76 60.74 1033.41 64.91 1023.46C72.14 1006.18 75.65 987.99 75.34 969.39C75.16 958.21 73.58 947.11 70.67 936.39L69.71 932.87H10.75L13.69 939.55C17.99 949.33 20.25 959.67 20.43 970.29C20.61 981.26 18.53 992.02 14.25 1002.25C9.98001 1012.44 3.89001 1021.37 -3.87 1028.84L-4.23999 1029.18C-29.09 1023.86 -55.35 1032.77 -71.75 1052.31L-72.87 1053.64V1100.71L-69.69 1101.83C-69.09 1102.04 -61.89 1104.49 -49.79 1104.49C-37.69 1104.49 -19.82 1101.91 1.03001 1091.69C20.92 1101.58 40.87 1104.33 56.88 1104.33C71.25 1104.33 82.44 1102.12 87.59 1100.88L91.24 1100V1044.51L84.84 1046.85L84.85 1046.86ZM-18.62 1037.19C-17.21 1037.19 -15.8 1037.24 -14.39 1037.34C-16.59 1038.83 -18.88 1040.21 -21.24 1041.48C-32.19 1047.39 -44.58 1050.67 -57.01 1051.04C-46.25 1042.09 -32.57 1037.19 -18.63 1037.19H-18.62ZM-63.33 1093.65V1060.52C-63.15 1060.52 -62.96 1060.52 -62.78 1060.54C-61.64 1060.58 -60.49 1060.61 -59.35 1060.61C-44.58 1060.61 -29.73 1056.9 -16.71 1049.87C-10.56 1046.55 -4.83999 1042.55 0.290009 1037.97C0.290009 1037.97 2.00001 1036.56 5.32001 1033.11C6.25001 1032.14 6.76 1031.58 7.02 1031.25C13.7 1023.86 19.08 1015.39 23.04 1005.94C27.84 994.48 30.16 982.44 29.96 970.14C29.8 960.64 28.15 951.35 25.04 942.41H62.36C64.49 951.26 65.65 960.38 65.8 969.55C66.09 986.83 62.82 1003.73 56.1 1019.79C51.57 1030.62 45.58 1040.71 38.31 1049.77C37.94 1050.23 37.55 1050.69 37.17 1051.15L36.71 1051.7C35.31 1053.37 34.13 1054.72 33 1055.96C32.22 1056.81 31.41 1057.67 30.6 1058.5C29.06 1059.87 12.97 1074.06 0.100006 1081.49C-0.279991 1081.69 -0.669998 1081.89 -1.05 1082.08L-1.12999 1082.12C-31.94 1097.84 -55.19 1095.32 -63.35 1093.65H-63.33ZM81.72 1092.43C69.24 1094.93 40.58 1098.36 11.11 1085.85C11.23 1085.77 11.34 1085.69 11.46 1085.62C11.6 1085.52 11.75 1085.42 11.89 1085.33C12.19 1085.13 12.49 1084.92 12.79 1084.72C12.93 1084.63 13.06 1084.53 13.2 1084.44C13.52 1084.22 13.85 1083.99 14.17 1083.76C14.28 1083.68 14.39 1083.61 14.5 1083.53C15.38 1082.91 16.25 1082.29 17.11 1081.66C17.19 1081.6 17.26 1081.55 17.34 1081.49C17.69 1081.23 18.04 1080.98 18.39 1080.72C18.51 1080.63 18.62 1080.55 18.74 1080.46C19.05 1080.23 19.35 1080 19.66 1079.77C19.78 1079.68 19.91 1079.58 20.03 1079.49C20.33 1079.26 20.63 1079.03 20.93 1078.81C21.04 1078.72 21.16 1078.64 21.27 1078.55C21.6 1078.3 21.92 1078.05 22.25 1077.8C22.33 1077.74 22.4 1077.68 22.48 1077.63C23.3 1077 24.09 1076.37 24.87 1075.76C24.91 1075.73 24.95 1075.7 24.99 1075.67C25.33 1075.4 25.66 1075.13 26 1074.87C26.08 1074.81 26.16 1074.75 26.23 1074.68C26.53 1074.44 26.82 1074.21 27.1 1073.98C27.18 1073.92 27.26 1073.85 27.33 1073.79C27.62 1073.56 27.9 1073.33 28.18 1073.1C28.25 1073.05 28.31 1072.99 28.38 1072.94C28.69 1072.69 28.99 1072.44 29.28 1072.2C29.31 1072.17 29.34 1072.15 29.37 1072.12C30.37 1071.29 31.3 1070.52 32.15 1069.8C32.18 1069.77 32.22 1069.74 32.25 1069.72C32.49 1069.51 32.73 1069.31 32.96 1069.12C33 1069.09 33.03 1069.06 33.07 1069.03C33.29 1068.84 33.51 1068.66 33.71 1068.48C33.74 1068.45 33.77 1068.43 33.8 1068.4C34.03 1068.2 34.25 1068.01 34.46 1067.83C35.12 1067.26 35.66 1066.79 36.09 1066.41C36.09 1066.41 36.1 1066.4 36.11 1066.39C36.24 1066.27 36.37 1066.16 36.48 1066.07C36.48 1066.07 36.48 1066.07 36.49 1066.07C36.82 1065.77 37.04 1065.58 37.11 1065.52L37.35 1065.29C38.26 1064.35 39.17 1063.39 40.06 1062.42C40.39 1062.06 40.72 1061.69 41.06 1061.31C41.17 1061.19 41.28 1061.06 41.39 1060.94C41.62 1060.68 41.85 1060.42 42.08 1060.15C42.12 1060.1 42.16 1060.06 42.2 1060.01C57.6 1062.86 71.38 1060.87 81.73 1057.92V1092.46L81.72 1092.43Z" fill="#3E3E3E"/>
<path d="M296.37 912.04C287.84 915.16 275.19 918.16 260.62 916.54C266.95 907.94 272.26 898.59 276.43 888.64C283.66 871.36 287.17 853.17 286.86 834.57C286.68 823.39 285.1 812.29 282.19 801.57L281.23 798.05H222.27L225.21 804.73C229.51 814.51 231.77 824.85 231.95 835.47C232.13 846.44 230.05 857.2 225.77 867.43C221.5 877.62 215.41 886.55 207.65 894.02L207.28 894.36C182.43 889.04 156.17 897.95 139.77 917.49L138.65 918.82V965.89L141.83 967.01C142.43 967.22 149.63 969.67 161.73 969.67C173.83 969.67 191.7 967.09 212.55 956.87C232.44 966.76 252.39 969.51 268.4 969.51C282.77 969.51 293.96 967.3 299.11 966.06L302.76 965.18V909.69L296.36 912.03L296.37 912.04ZM192.9 902.38C194.31 902.38 195.72 902.43 197.13 902.53C194.93 904.02 192.64 905.4 190.28 906.67C179.33 912.58 166.94 915.86 154.51 916.23C165.27 907.28 178.95 902.38 192.89 902.38H192.9ZM148.19 958.83V925.7C148.37 925.7 148.56 925.7 148.74 925.72C149.88 925.76 151.03 925.79 152.17 925.79C166.94 925.79 181.79 922.08 194.81 915.05C200.96 911.73 206.68 907.73 211.81 903.15C211.81 903.15 213.52 901.74 216.84 898.29C217.77 897.32 218.28 896.76 218.54 896.43C225.22 889.04 230.6 880.57 234.56 871.12C239.36 859.66 241.68 847.62 241.48 835.32C241.32 825.82 239.67 816.53 236.56 807.59H273.88C276.01 816.44 277.17 825.56 277.32 834.73C277.61 852.01 274.34 868.91 267.62 884.97C263.09 895.8 257.1 905.89 249.83 914.95C249.46 915.41 249.07 915.87 248.69 916.33L248.23 916.88C246.83 918.55 245.65 919.9 244.52 921.14C243.74 921.99 242.93 922.85 242.12 923.68C240.58 925.05 224.49 939.24 211.62 946.67C211.24 946.87 210.85 947.07 210.47 947.26L210.39 947.3C179.58 963.02 156.33 960.5 148.17 958.83H148.19ZM293.24 957.62C280.76 960.12 252.1 963.55 222.63 951.04C222.75 950.96 222.86 950.88 222.98 950.81C223.12 950.71 223.27 950.61 223.41 950.52C223.71 950.32 224.01 950.11 224.31 949.91C224.45 949.82 224.58 949.72 224.72 949.63C225.04 949.41 225.37 949.18 225.69 948.95C225.8 948.87 225.91 948.8 226.02 948.72C226.9 948.1 227.77 947.48 228.63 946.85C228.71 946.79 228.78 946.74 228.86 946.68C229.21 946.42 229.56 946.17 229.91 945.91C230.03 945.82 230.14 945.74 230.26 945.65C230.57 945.42 230.87 945.19 231.18 944.96C231.3 944.87 231.43 944.77 231.55 944.68C231.85 944.45 232.15 944.22 232.45 944C232.56 943.91 232.68 943.83 232.79 943.74C233.12 943.49 233.44 943.24 233.77 942.99C233.85 942.93 233.92 942.87 234 942.82C234.82 942.19 235.61 941.56 236.39 940.95C236.43 940.92 236.47 940.89 236.51 940.86C236.85 940.59 237.18 940.32 237.52 940.06C237.6 940 237.68 939.94 237.75 939.87C238.05 939.63 238.34 939.4 238.62 939.17C238.7 939.11 238.78 939.04 238.85 938.98C239.14 938.75 239.42 938.52 239.7 938.29C239.77 938.24 239.83 938.18 239.9 938.13C240.21 937.88 240.51 937.63 240.8 937.39C240.83 937.36 240.86 937.34 240.89 937.31C241.89 936.48 242.82 935.71 243.67 934.99C243.7 934.96 243.74 934.93 243.77 934.91C244.01 934.7 244.25 934.5 244.48 934.31C244.52 934.28 244.55 934.25 244.59 934.22C244.81 934.03 245.03 933.85 245.23 933.67C245.26 933.64 245.29 933.62 245.32 933.59C245.55 933.39 245.77 933.2 245.98 933.02C246.64 932.45 247.18 931.98 247.61 931.6C247.61 931.6 247.62 931.59 247.63 931.58C247.76 931.46 247.89 931.35 248 931.26C248 931.26 248 931.26 248.01 931.26C248.34 930.96 248.56 930.77 248.63 930.71L248.87 930.48C249.78 929.54 250.69 928.58 251.58 927.61C251.91 927.25 252.24 926.88 252.58 926.5C252.69 926.38 252.8 926.25 252.91 926.13C253.14 925.87 253.37 925.61 253.6 925.34C253.64 925.29 253.68 925.25 253.72 925.2C269.12 928.05 282.9 926.06 293.25 923.11V957.65L293.24 957.62Z" fill="#3E3E3E"/>
<path d="M296.37 1228.67C287.84 1231.79 275.19 1234.79 260.62 1233.17C266.95 1224.57 272.26 1215.22 276.43 1205.27C283.66 1187.99 287.17 1169.8 286.86 1151.2C286.68 1140.02 285.1 1128.92 282.19 1118.2L281.23 1114.68H222.27L225.21 1121.36C229.51 1131.14 231.77 1141.48 231.95 1152.1C232.13 1163.07 230.05 1173.83 225.77 1184.06C221.5 1194.25 215.41 1203.18 207.65 1210.65L207.28 1210.99C182.43 1205.67 156.17 1214.58 139.77 1234.12L138.65 1235.45V1282.52L141.83 1283.64C142.43 1283.85 149.63 1286.3 161.73 1286.3C173.83 1286.3 191.7 1283.72 212.55 1273.5C232.44 1283.39 252.39 1286.14 268.4 1286.14C282.77 1286.14 293.96 1283.93 299.11 1282.69L302.76 1281.81V1226.32L296.36 1228.66L296.37 1228.67ZM192.9 1219.01C194.31 1219.01 195.72 1219.06 197.13 1219.16C194.93 1220.65 192.64 1222.03 190.28 1223.3C179.33 1229.21 166.94 1232.49 154.51 1232.86C165.27 1223.91 178.95 1219.01 192.89 1219.01H192.9ZM148.19 1275.46V1242.33C148.37 1242.33 148.56 1242.33 148.74 1242.35C149.88 1242.39 151.03 1242.42 152.17 1242.42C166.94 1242.42 181.79 1238.71 194.81 1231.68C200.96 1228.36 206.68 1224.36 211.81 1219.78C211.81 1219.78 213.52 1218.37 216.84 1214.92C217.77 1213.95 218.28 1213.39 218.54 1213.06C225.22 1205.67 230.6 1197.2 234.56 1187.75C239.36 1176.29 241.68 1164.25 241.48 1151.95C241.32 1142.45 239.67 1133.16 236.56 1124.22H273.88C276.01 1133.07 277.17 1142.19 277.32 1151.36C277.61 1168.64 274.34 1185.54 267.62 1201.6C263.09 1212.43 257.1 1222.52 249.83 1231.58C249.46 1232.04 249.07 1232.5 248.69 1232.96L248.23 1233.51C246.83 1235.18 245.65 1236.53 244.52 1237.77C243.74 1238.62 242.93 1239.48 242.12 1240.31C240.58 1241.68 224.49 1255.87 211.62 1263.3C211.24 1263.5 210.85 1263.7 210.47 1263.89L210.39 1263.93C179.58 1279.65 156.33 1277.13 148.17 1275.46H148.19ZM293.24 1274.24C280.76 1276.74 252.1 1280.17 222.63 1267.66C222.75 1267.58 222.86 1267.5 222.98 1267.43C223.12 1267.33 223.27 1267.23 223.41 1267.14C223.71 1266.94 224.01 1266.73 224.31 1266.53C224.45 1266.44 224.58 1266.34 224.72 1266.25C225.04 1266.03 225.37 1265.8 225.69 1265.57C225.8 1265.49 225.91 1265.42 226.02 1265.34C226.9 1264.72 227.77 1264.1 228.63 1263.47C228.71 1263.41 228.78 1263.36 228.86 1263.3C229.21 1263.04 229.56 1262.79 229.91 1262.53C230.03 1262.44 230.14 1262.36 230.26 1262.27C230.57 1262.04 230.87 1261.81 231.18 1261.58C231.3 1261.49 231.43 1261.39 231.55 1261.3C231.85 1261.07 232.15 1260.84 232.45 1260.62C232.56 1260.53 232.68 1260.45 232.79 1260.36C233.12 1260.11 233.44 1259.86 233.77 1259.61C233.85 1259.55 233.92 1259.49 234 1259.44C234.82 1258.81 235.61 1258.18 236.39 1257.57C236.43 1257.54 236.47 1257.51 236.51 1257.48C236.85 1257.21 237.18 1256.94 237.52 1256.68C237.6 1256.62 237.68 1256.56 237.75 1256.49C238.05 1256.25 238.34 1256.02 238.62 1255.79C238.7 1255.73 238.78 1255.66 238.85 1255.6C239.14 1255.37 239.42 1255.14 239.7 1254.91C239.77 1254.86 239.83 1254.8 239.9 1254.75C240.21 1254.5 240.51 1254.25 240.8 1254.01C240.83 1253.98 240.86 1253.96 240.89 1253.93C241.89 1253.1 242.82 1252.33 243.67 1251.61C243.7 1251.58 243.74 1251.55 243.77 1251.53C244.01 1251.32 244.25 1251.12 244.48 1250.93C244.52 1250.9 244.55 1250.87 244.59 1250.84C244.81 1250.65 245.03 1250.47 245.23 1250.29C245.26 1250.26 245.29 1250.24 245.32 1250.21C245.55 1250.01 245.77 1249.82 245.98 1249.64C246.64 1249.07 247.18 1248.6 247.61 1248.22C247.61 1248.22 247.62 1248.21 247.63 1248.2C247.76 1248.08 247.89 1247.97 248 1247.88C248 1247.88 248 1247.88 248.01 1247.88C248.34 1247.58 248.56 1247.39 248.63 1247.33L248.87 1247.1C249.78 1246.16 250.69 1245.2 251.58 1244.23C251.91 1243.87 252.24 1243.5 252.58 1243.12C252.69 1243 252.8 1242.87 252.91 1242.75C253.14 1242.49 253.37 1242.23 253.6 1241.96C253.64 1241.91 253.68 1241.87 253.72 1241.82C269.12 1244.67 282.9 1242.68 293.25 1239.73V1274.27L293.24 1274.24Z" fill="#3E3E3E"/>
</g>
</svg>
