<svg width="300" height="98" viewBox="0 0 392 116" fill="none" xmlns="http://www.w3.org/2000/svg">
<g clip-path="url(#clip0_226_3079)">
<path d="M150.089 38.0218L148.114 25.6897L142.603 37.762H141.891L136.374 25.699L134.386 38.0218H131.547L134.317 21.0083H137.054L142.224 32.5795L147.416 21.0083H150.191L152.919 38.0218H150.08H150.089Z" fill="white"/>
<path d="M164.432 38.3419C160.839 38.3419 158.481 36.0128 158.481 32.482V24.8962H161.168V32.1016C161.168 34.3796 162.407 35.7669 164.428 35.7669C166.448 35.7669 167.683 34.3564 167.683 32.1016V24.8962H170.374V32.482C170.374 36.0128 168.044 38.3419 164.432 38.3419Z" fill="white"/>
<path d="M183.95 24.5947C187.011 24.5947 188.921 26.8821 188.921 30.1159V38.0172H186.229V30.6634C186.229 28.2786 185.194 27.012 183.229 27.012C181.263 27.012 179.714 28.6683 179.714 30.9881V38.0172H177.023V24.8917H178.896L179.418 26.7243C180.408 25.402 182.022 24.5947 183.945 24.5947H183.95Z" fill="white"/>
<path d="M195.561 20.0757H198.34V22.8595H195.561V20.0757ZM195.607 24.8916H198.298V38.0171H195.607V24.8916Z" fill="white"/>
<path d="M211.042 38.3419C207.144 38.3419 204.184 35.3679 204.184 31.4475C204.184 27.527 207.134 24.5808 211.046 24.5808C214.278 24.5808 216.808 26.5666 217.534 29.5777H214.87C214.181 28.0698 212.748 27.1558 211.042 27.1558C208.688 27.1558 206.922 29.0209 206.922 31.4567C206.922 33.8925 208.711 35.7716 211.042 35.7716C212.753 35.7716 214.14 34.8437 214.852 33.2476H217.566C216.845 36.3144 214.274 38.3466 211.042 38.3466V38.3419Z" fill="white"/>
<path d="M223.198 20.0757H225.977V22.8595H223.198V20.0757ZM223.244 24.8916H225.935V38.0171H223.244V24.8916Z" fill="white"/>
<path d="M239.816 24.5762C243.733 24.5762 246.591 27.5084 246.591 31.4567C246.591 35.4051 243.728 38.3466 239.816 38.3466C238.124 38.3466 236.621 37.7574 235.475 36.7552V42.7218H232.783V24.8917H234.596L235.1 26.5016C236.284 25.2907 237.93 24.5715 239.816 24.5715V24.5762ZM243.872 31.4567C243.872 28.9838 242.068 27.1512 239.604 27.1512C237.139 27.1512 235.317 29.0024 235.317 31.4567C235.317 33.9111 237.135 35.7623 239.604 35.7623C242.073 35.7623 243.872 33.9297 243.872 31.4567Z" fill="white"/>
<path d="M265.526 24.887V38.0125H263.357L263.094 36.4165C261.91 37.6182 260.254 38.3373 258.349 38.3373C254.451 38.3373 251.538 35.3819 251.538 31.4475C251.538 27.5131 254.451 24.5715 258.349 24.5715C260.278 24.5715 261.947 25.3 263.135 26.5248L263.45 24.8824H265.526V24.887ZM262.83 31.4475C262.83 28.9745 261.027 27.1419 258.562 27.1419C256.098 27.1419 254.276 28.9931 254.276 31.4475C254.276 33.9018 256.093 35.753 258.562 35.753C261.031 35.753 262.83 33.9204 262.83 31.4475Z" fill="white"/>
<path d="M272.388 20.1917H275.074V38.0217H272.388V20.1917Z" fill="white"/>
<path d="M281.885 20.0757H284.664V22.8595H281.885V20.0757ZM281.931 24.8916H284.618V38.0171H281.931V24.8916Z" fill="white"/>
<path d="M304.311 20.1917V38.0217H302.277L301.93 36.5324C300.751 37.6691 299.146 38.3465 297.311 38.3465C293.357 38.3465 290.509 35.3911 290.509 31.4567C290.509 27.5223 293.353 24.5761 297.311 24.5761C298.989 24.5761 300.478 25.1375 301.62 26.1025V20.1917H304.307H304.311ZM297.523 35.7669C299.988 35.7669 301.81 33.9018 301.81 31.4613C301.81 29.0209 299.993 27.1557 297.523 27.1557C295.054 27.1557 293.255 28.9884 293.255 31.4613C293.255 33.9342 295.059 35.7669 297.523 35.7669Z" fill="white"/>
<path d="M324.19 24.887V38.0125H322.021L321.758 36.4165C320.574 37.6182 318.919 38.3373 317.013 38.3373C313.116 38.3373 310.202 35.3819 310.202 31.4475C310.202 27.5131 313.116 24.5715 317.013 24.5715C318.942 24.5715 320.611 25.3 321.799 26.5248L322.114 24.8824H324.19V24.887ZM321.494 31.4475C321.494 28.9745 319.691 27.1419 317.226 27.1419C314.762 27.1419 312.94 28.9931 312.94 31.4475C312.94 33.9018 314.757 35.753 317.226 35.753C319.695 35.753 321.494 33.9204 321.494 31.4475Z" fill="white"/>
<path d="M343.888 20.1917V38.0217H341.853L341.506 36.5324C340.327 37.6691 338.723 38.3465 336.887 38.3465C332.934 38.3465 330.085 35.3911 330.085 31.4567C330.085 27.5223 332.929 24.5761 336.887 24.5761C338.566 24.5761 340.054 25.1375 341.197 26.1025V20.1917H343.883H343.888ZM337.1 35.7669C339.564 35.7669 341.386 33.9018 341.386 31.4613C341.386 29.0209 339.569 27.1557 337.1 27.1557C334.631 27.1557 332.832 28.9884 332.832 31.4613C332.832 33.9342 334.635 35.7669 337.1 35.7669Z" fill="white"/>
<path d="M372.714 20.1917V38.0217H370.679L370.332 36.5324C369.153 37.6691 367.549 38.3465 365.713 38.3465C361.759 38.3465 358.911 35.3911 358.911 31.4567C358.911 27.5223 361.755 24.5761 365.713 24.5761C367.391 24.5761 368.88 25.1375 370.022 26.1025V20.1917H372.709H372.714ZM365.926 35.7669C368.39 35.7669 370.212 33.9018 370.212 31.4613C370.212 29.0209 368.395 27.1557 365.926 27.1557C363.456 27.1557 361.658 28.9884 361.658 31.4613C361.658 33.9342 363.461 35.7669 365.926 35.7669Z" fill="white"/>
<path d="M392 31.4892C392 31.7862 391.977 32.0785 391.945 32.3754H381.328C381.666 34.5003 383.191 35.8087 385.332 35.8087C386.895 35.8087 388.162 35.0849 388.851 33.8879H391.681C390.641 36.6578 388.25 38.3419 385.332 38.3419C381.508 38.3419 378.609 35.3819 378.609 31.4614C378.609 27.5409 381.499 24.5808 385.332 24.5808C389.166 24.5808 392 27.6754 392 31.4939V31.4892ZM385.332 27.012C383.312 27.012 381.837 28.2368 381.397 30.1808H389.309C388.828 28.1858 387.33 27.012 385.337 27.012H385.332Z" fill="white"/>
<path d="M142.311 57.1184H133.799V104.753H163.831V97.3904H142.311V57.1184Z" fill="white"/>
<path d="M196.564 85.4712C196.564 88.538 195.551 91.1362 193.558 93.1822C191.561 95.2329 189.027 96.2769 186.035 96.2769C183.044 96.2769 180.51 95.2376 178.507 93.1822C176.515 91.1362 175.502 88.5426 175.502 85.4712V57.188H166.985V85.4712C166.985 90.8671 168.843 95.4835 172.51 99.1952C176.172 102.902 180.722 104.786 186.035 104.786C191.348 104.786 195.894 102.907 199.56 99.1952C203.227 95.4835 205.086 90.8671 205.086 85.4712V57.188H196.569V85.4712H196.564Z" fill="white"/>
<path d="M234.134 57.188C227.637 57.188 222.005 59.5356 217.386 64.166C212.771 68.7963 210.431 74.4613 210.431 81.0032C210.431 89.2339 214.006 95.9011 221.057 100.824L241.236 116L246.286 109.138L239.687 104.178L240.718 103.863C245.731 102.327 249.878 99.4504 253.041 95.3211C256.199 91.1965 257.799 86.3805 257.799 81.0032C257.799 74.4613 255.464 68.7963 250.859 64.166C246.253 59.5356 240.626 57.188 234.129 57.188H234.134ZM244.843 91.7625C241.893 94.7319 238.291 96.2397 234.134 96.2397C229.977 96.2397 226.338 94.7319 223.392 91.7625C220.442 88.7931 218.949 85.1742 218.949 81.0032C218.949 76.8322 220.442 73.1762 223.392 70.2068C226.342 67.2374 229.954 65.7295 234.134 65.7295C238.314 65.7295 241.893 67.2374 244.843 70.2068C247.793 73.1762 249.286 76.809 249.286 81.0032C249.286 85.1974 247.793 88.7931 244.843 91.7625Z" fill="white"/>
<path d="M292.923 85.4712C292.923 88.538 291.91 91.1315 289.917 93.1822C287.92 95.2329 285.39 96.2769 282.394 96.2769C279.398 96.2769 276.864 95.2376 274.866 93.1822C272.873 91.1362 271.861 88.5426 271.861 85.4712V57.188H263.343V85.4712C263.343 90.8671 265.202 95.4835 268.869 99.1952C272.531 102.902 277.081 104.786 282.394 104.786C287.707 104.786 292.252 102.907 295.919 99.1952C299.586 95.4835 301.445 90.8671 301.445 85.4712V57.188H292.927V85.4712H292.923Z" fill="white"/>
<path d="M329.886 57.0535C316.639 57.0535 306.651 67.2885 306.651 80.864C306.651 94.4396 316.639 104.675 329.886 104.675C339.754 104.675 347.8 99.2138 351.559 90.018H342.658C340.027 94.3468 335.394 96.8197 329.886 96.8197C322.04 96.8197 316.403 91.9852 315.178 84.1999L315.076 83.5643H352.798C352.872 82.8034 352.941 81.894 352.941 80.98V80.6228C352.775 66.9498 343.134 57.0627 329.886 57.0627V57.0535ZM315.266 76.9018L315.418 76.2291C317.046 69.0423 322.59 64.5789 329.886 64.5789C337.262 64.5789 342.713 68.9309 344.48 76.2244L344.646 76.9064H315.27L315.266 76.9018Z" fill="white"/>
<path d="M98.1431 71.1673C92.8348 73.1113 84.9602 74.9903 75.8973 73.9789C79.8369 68.6108 83.143 62.7695 85.7324 56.5617C90.2315 45.7746 92.4186 34.4121 92.2244 22.7991C92.1088 15.8165 91.1285 8.88489 89.316 2.19454L88.7195 0H52.0331L53.8595 4.17567C56.5322 10.2814 57.9425 16.7398 58.0534 23.3652C58.1644 30.2179 56.8697 36.9314 54.2063 43.3202C51.5522 49.6858 47.7605 55.2626 42.9285 59.9208L42.6973 60.1342C27.2302 56.8076 10.8938 62.3752 0.68871 74.5774L-0.00488281 75.4079V104.8L1.96954 105.501C2.33946 105.63 6.82469 107.166 14.3571 107.166C21.8895 107.166 33.0055 105.556 45.9849 99.1721C58.3632 105.352 70.7785 107.069 80.7432 107.069C89.6813 107.069 96.6495 105.691 99.8586 104.911L102.129 104.359V69.7104L98.1431 71.1719V71.1673ZM33.75 65.1311C34.6239 65.1311 35.5024 65.1636 36.381 65.2239C35.0077 66.1518 33.5881 67.0148 32.1223 67.8128C25.3112 71.506 17.5939 73.552 9.86263 73.7794C16.5627 68.1886 25.0708 65.1311 33.75 65.1311ZM5.93227 100.383V79.6995C6.04787 79.7042 6.15884 79.7042 6.27444 79.7088C6.98653 79.7367 7.69862 79.7552 8.41071 79.7552C17.6031 79.7552 26.8464 77.44 34.9429 73.051C38.7669 70.977 42.3274 68.4763 45.5225 65.6229C45.5225 65.6229 46.586 64.7414 48.6529 62.584C49.2309 61.9808 49.55 61.6236 49.7118 61.4194C53.8688 56.803 57.2165 51.5184 59.6811 45.6168C62.6635 38.4625 64.1154 30.9417 63.986 23.2631C63.8889 17.3337 62.8623 11.5295 60.9295 5.948H84.1556C85.4827 11.4784 86.1994 17.1666 86.2965 22.8919C86.4722 33.6791 84.4423 44.2342 80.2623 54.2605C77.4417 61.0204 73.7148 67.321 69.1879 72.9814C68.9567 73.2737 68.7163 73.5567 68.4804 73.8397L68.1938 74.1877C67.3244 75.2316 66.5892 76.076 65.8864 76.8462C65.4009 77.3797 64.8969 77.9133 64.3929 78.4329C63.4311 79.2913 53.4249 88.1483 45.4162 92.7879C45.1757 92.9132 44.9399 93.0338 44.6995 93.1545L44.6532 93.1777C25.4777 102.995 11.014 101.422 5.93227 100.378V100.383ZM96.1964 99.6221C88.4282 101.181 70.5936 103.325 52.255 95.516C52.329 95.4696 52.3983 95.4186 52.4723 95.3722C52.5602 95.3119 52.6527 95.2516 52.7451 95.1913C52.9301 95.066 53.1197 94.9361 53.3046 94.8062C53.3879 94.7459 53.4757 94.6902 53.559 94.6299C53.7624 94.4907 53.9612 94.3469 54.1647 94.2077C54.2341 94.1613 54.2988 94.1102 54.3681 94.0638C54.9138 93.6787 55.4548 93.289 55.9912 92.8946C56.0374 92.8622 56.0836 92.8251 56.1345 92.7926C56.3518 92.6302 56.5691 92.4724 56.7865 92.3101C56.8605 92.2544 56.9298 92.2033 57.0038 92.1477C57.1934 92.0038 57.3876 91.86 57.5772 91.7208C57.6558 91.6605 57.7298 91.6048 57.8084 91.5445C57.9979 91.4007 58.1829 91.2615 58.3679 91.1177C58.4372 91.062 58.5066 91.011 58.5759 90.9553C58.7794 90.7975 58.9828 90.6444 59.1817 90.4867C59.2279 90.4496 59.2742 90.4124 59.3204 90.38C59.829 89.9856 60.3238 89.5959 60.8047 89.2108C60.8278 89.1922 60.8555 89.1737 60.8787 89.1505C61.0914 88.9834 61.2994 88.8164 61.5029 88.6494C61.5538 88.6123 61.6 88.5705 61.6462 88.5334C61.8312 88.3849 62.0115 88.2365 62.1919 88.0926C62.2427 88.0509 62.289 88.0138 62.3398 87.972C62.5202 87.8282 62.6959 87.6797 62.8716 87.5405C62.9132 87.508 62.9548 87.4709 62.9964 87.4384C63.186 87.2807 63.3756 87.1276 63.5559 86.9745C63.5744 86.9606 63.5975 86.942 63.616 86.9234C64.2403 86.4084 64.8183 85.9213 65.3454 85.4759C65.3639 85.4573 65.387 85.4434 65.4055 85.4248C65.5581 85.2949 65.7061 85.1697 65.8494 85.049C65.8725 85.0305 65.8957 85.0073 65.9188 84.9887C66.0575 84.8681 66.1916 84.7567 66.3211 84.6454C66.3395 84.6315 66.358 84.6129 66.3765 84.599C66.5199 84.4784 66.6586 84.3577 66.7881 84.2464C67.195 83.8938 67.5372 83.5968 67.8007 83.3648C67.8007 83.3648 67.81 83.3556 67.8146 83.3556C67.8978 83.2813 67.9764 83.2164 68.0412 83.1561C68.0412 83.1561 68.0412 83.1561 68.0458 83.1514C68.2539 82.9658 68.388 82.8452 68.4296 82.8081L68.5775 82.6643C69.1463 82.0797 69.7104 81.4765 70.2607 80.8734C70.4641 80.6507 70.6722 80.4187 70.8849 80.1821C70.9543 80.1078 71.0236 80.0243 71.0883 79.9501C71.2317 79.7877 71.375 79.6253 71.5184 79.4583C71.5461 79.4304 71.5692 79.4026 71.5924 79.3701C81.1732 81.1471 89.7552 79.9037 96.1918 78.0618V99.6267L96.1964 99.6221Z" fill="white"/>
</g>
<defs>
<clipPath id="clip0_226_3079">
<rect width="392" height="116" fill="white"/>
</clipPath>
</defs>
</svg>