<svg width="191" height="58" viewBox="0 0 191 58" fill="none" xmlns="http://www.w3.org/2000/svg">
<g id="Vector">
<g id="Vector_2">
<path d="M74.0091 20.3591L73.0542 14.4066L70.3887 20.2337H70.0443L67.3765 14.4111L66.4149 20.3591H65.0419L66.3814 12.147H67.7052L70.2053 17.7322L72.7165 12.147H74.0583L75.3776 20.3591H74.0046H74.0091Z" fill="#3E3E3E"/>
<path d="M80.948 20.5136C79.2105 20.5136 78.07 19.3894 78.07 17.6852V14.0236H79.3692V17.5015C79.3692 18.6011 79.9685 19.2707 80.9457 19.2707C81.923 19.2707 82.52 18.5899 82.52 17.5015V14.0236H83.8215V17.6852C83.8215 19.3894 82.6944 20.5136 80.948 20.5136Z" fill="#3E3E3E"/>
<path d="M90.3847 13.8803C91.8651 13.8803 92.7886 14.9844 92.7886 16.5453V20.3591H91.4872V16.8095C91.4872 15.6584 90.9862 15.0471 90.0359 15.0471C89.0855 15.0471 88.3363 15.8466 88.3363 16.9663V20.3591H87.0349V14.0236H87.9406L88.1932 14.9082C88.6718 14.27 89.4522 13.8803 90.3825 13.8803H90.3847Z" fill="#3E3E3E"/>
<path d="M95.9998 11.6991H97.3437V13.0427H95.9998V11.6991ZM96.0222 14.0236H97.3236V20.3591H96.0222V14.0236Z" fill="#3E3E3E"/>
<path d="M103.487 20.5136C101.601 20.5136 100.17 19.0781 100.17 17.1858C100.17 15.2934 101.597 13.8713 103.489 13.8713C105.052 13.8713 106.275 14.8298 106.626 16.2832H105.338C105.005 15.5554 104.312 15.1142 103.487 15.1142C102.348 15.1142 101.494 16.0145 101.494 17.1902C101.494 18.366 102.36 19.2729 103.487 19.2729C104.314 19.2729 104.985 18.825 105.329 18.0547H106.642C106.293 19.535 105.05 20.5158 103.487 20.5158V20.5136Z" fill="#3E3E3E"/>
<path d="M109.366 11.6991H110.709V13.0427H109.366V11.6991ZM109.388 14.0236H110.689V20.3591H109.388V14.0236Z" fill="#3E3E3E"/>
<path d="M117.402 13.8691C119.296 13.8691 120.678 15.2844 120.678 17.1902C120.678 19.096 119.294 20.5158 117.402 20.5158C116.584 20.5158 115.857 20.2314 115.303 19.7477V22.6277H114.001V14.0214H114.878L115.121 14.7985C115.694 14.214 116.49 13.8669 117.402 13.8669V13.8691ZM119.364 17.1902C119.364 15.9966 118.491 15.112 117.3 15.112C116.108 15.112 115.227 16.0056 115.227 17.1902C115.227 18.3749 116.105 19.2685 117.3 19.2685C118.494 19.2685 119.364 18.3839 119.364 17.1902Z" fill="#3E3E3E"/>
<path d="M129.836 20.3568H128.787L128.659 19.5865C128.087 20.1665 127.286 20.5136 126.365 20.5136C124.48 20.5136 123.071 19.0871 123.071 17.188C123.071 15.2889 124.48 13.8691 126.365 13.8691C127.298 13.8691 128.105 14.2207 128.68 14.8119L128.832 14.0192H129.836V20.3568ZM128.532 17.188C128.532 15.9944 127.66 15.1098 126.468 15.1098C125.276 15.1098 124.395 16.0033 124.395 17.188C124.395 18.3727 125.274 19.2662 126.468 19.2662C127.662 19.2662 128.532 18.3816 128.532 17.188Z" fill="#3E3E3E"/>
<path d="M133.154 11.7528H134.453V20.3591H133.154V11.7528Z" fill="#3E3E3E"/>
<path d="M137.75 11.6991H139.093V13.0427H137.75V11.6991ZM137.772 14.0236H139.071V20.3591H137.772V14.0236Z" fill="#3E3E3E"/>
<path d="M148.593 11.7528V20.3591H147.609L147.441 19.6402C146.871 20.1889 146.095 20.5158 145.207 20.5158C143.295 20.5158 141.918 19.0893 141.918 17.1902C141.918 15.2912 143.293 13.8691 145.207 13.8691C146.019 13.8691 146.739 14.1401 147.291 14.6059V11.7528H148.593ZM145.31 19.2707C146.502 19.2707 147.383 18.3704 147.383 17.1925C147.383 16.0145 146.504 15.1142 145.31 15.1142C144.116 15.1142 143.246 15.9988 143.246 17.1925C143.246 18.3861 144.118 19.2707 145.31 19.2707Z" fill="#3E3E3E"/>
<path d="M158.208 20.3568H157.16L157.032 19.5865C156.46 20.1665 155.659 20.5136 154.738 20.5136C152.853 20.5136 151.444 19.0871 151.444 17.188C151.444 15.2889 152.853 13.8691 154.738 13.8691C155.67 13.8691 156.478 14.2207 157.052 14.8119L157.204 14.0192H158.208V20.3568ZM156.905 17.188C156.905 15.9944 156.033 15.1098 154.841 15.1098C153.649 15.1098 152.768 16.0033 152.768 17.188C152.768 18.3727 153.647 19.2662 154.841 19.2662C156.035 19.2662 156.905 18.3816 156.905 17.188Z" fill="#3E3E3E"/>
<path d="M167.735 11.7528V20.3591H166.751L166.583 19.6402C166.013 20.1889 165.237 20.5158 164.349 20.5158C162.437 20.5158 161.06 19.0893 161.06 17.1902C161.06 15.2912 162.435 13.8691 164.349 13.8691C165.161 13.8691 165.881 14.1401 166.433 14.6059V11.7528H167.735ZM164.452 19.2707C165.644 19.2707 166.525 18.3704 166.525 17.1925C166.525 16.0145 165.646 15.1142 164.452 15.1142C163.258 15.1142 162.388 15.9988 162.388 17.1925C162.388 18.3861 163.26 19.2707 164.452 19.2707Z" fill="#3E3E3E"/>
<path d="M181.673 11.7528V20.3591H180.689L180.521 19.6402C179.951 20.1889 179.175 20.5158 178.287 20.5158C176.375 20.5158 174.998 19.0893 174.998 17.1902C174.998 15.2912 176.373 13.8691 178.287 13.8691C179.099 13.8691 179.819 14.1401 180.371 14.6059V11.7528H181.673ZM178.39 19.2707C179.582 19.2707 180.463 18.3704 180.463 17.1925C180.463 16.0145 179.584 15.1142 178.39 15.1142C177.196 15.1142 176.326 15.9988 176.326 17.1925C176.326 18.3861 177.198 19.2707 178.39 19.2707Z" fill="#3E3E3E"/>
<path d="M191 17.2081C191 17.3515 190.989 17.4926 190.973 17.6359H185.839C186.002 18.6616 186.74 19.2931 187.775 19.2931C188.531 19.2931 189.144 18.9437 189.477 18.366H190.846C190.343 19.7029 189.186 20.5158 187.775 20.5158C185.926 20.5158 184.524 19.0871 184.524 17.1947C184.524 15.3024 185.922 13.8736 187.775 13.8736C189.629 13.8736 191 15.3673 191 17.2104V17.2081ZM187.775 15.0471C186.798 15.0471 186.085 15.6383 185.872 16.5766H189.699C189.466 15.6137 188.741 15.0471 187.778 15.0471H187.775Z" fill="#3E3E3E"/>
<path d="M70.25 29.579H66.131V52.5693H80.655V49.0175H70.25V29.579Z" fill="#3E3E3E"/>
<path d="M96.4873 43.2643C96.4873 44.7446 95.9976 45.9987 95.0338 46.9863C94.0677 47.9762 92.8423 48.48 91.3955 48.48C89.9486 48.48 88.7232 47.9784 87.7549 46.9863C86.7911 45.9987 86.3014 44.7468 86.3014 43.2643V29.6125H82.1824V43.2643C82.1824 45.8688 83.0813 48.0971 84.8546 49.8887C86.6257 51.678 88.8261 52.5872 91.3955 52.5872C93.9648 52.5872 96.163 51.6802 97.9363 49.8887C99.7096 48.0971 100.609 45.8688 100.609 43.2643V29.6125H96.4895V43.2643H96.4873Z" fill="#3E3E3E"/>
<path d="M114.654 29.6125C111.512 29.6125 108.789 30.7457 106.555 32.9807C104.323 35.2157 103.191 37.9501 103.191 41.1077C103.191 45.0805 104.92 48.2986 108.33 50.6747L118.089 58L120.531 54.6878L117.34 52.2938L117.838 52.1416C120.262 51.4003 122.268 50.0118 123.798 48.0187C125.325 46.0278 126.099 43.7033 126.099 41.1077C126.099 37.9501 124.97 35.2157 122.742 32.9807C120.515 30.7457 117.794 29.6125 114.652 29.6125H114.654ZM119.833 46.301C118.406 47.7343 116.664 48.4621 114.654 48.4621C112.644 48.4621 110.884 47.7343 109.459 46.301C108.033 44.8678 107.31 43.121 107.31 41.1077C107.31 39.0944 108.033 37.3297 109.459 35.8965C110.886 34.4632 112.633 33.7354 114.654 33.7354C116.676 33.7354 118.406 34.4632 119.833 35.8965C121.26 37.3297 121.982 39.0832 121.982 41.1077C121.982 43.1322 121.26 44.8678 119.833 46.301Z" fill="#3E3E3E"/>
<path d="M143.085 43.2643C143.085 44.7446 142.595 45.9965 141.632 46.9863C140.666 47.9762 139.442 48.48 137.993 48.48C136.544 48.48 135.319 47.9784 134.353 46.9863C133.389 45.9987 132.899 44.7468 132.899 43.2643V29.6125H128.78V43.2643C128.78 45.8688 129.679 48.0971 131.452 49.8887C133.223 51.678 135.424 52.5872 137.993 52.5872C140.563 52.5872 142.761 51.6802 144.534 49.8887C146.307 48.0971 147.206 45.8688 147.206 43.2643V29.6125H143.087V43.2643H143.085Z" fill="#3E3E3E"/>
<path d="M160.961 29.5476C154.555 29.5476 149.724 34.4879 149.724 41.0405C149.724 47.5932 154.555 52.5335 160.961 52.5335C165.733 52.5335 169.624 49.8976 171.442 45.459H167.138C165.865 47.5484 163.625 48.7421 160.961 48.7421C157.166 48.7421 154.44 46.4085 153.848 42.6507L153.799 42.3439H172.042C172.077 41.9766 172.111 41.5377 172.111 41.0965V40.9241C172.03 34.3244 167.368 29.5521 160.961 29.5521V29.5476ZM153.89 39.128L153.964 38.8033C154.751 35.3344 157.432 33.18 160.961 33.18C164.528 33.18 167.164 35.2806 168.019 38.8011L168.099 39.1303H153.893L153.89 39.128Z" fill="#3E3E3E"/>
<path d="M35.6852 38.5838C35.2737 39.0765 34.8533 39.5647 34.4195 40.0417C34.1377 40.3508 33.8515 40.6531 33.5608 40.9532C33.5608 40.9532 27.8294 46.0972 23.196 48.7689C23.0462 48.8473 22.8986 48.9235 22.751 48.9974C34.8958 55.3753 47.2463 53.1292 50.8555 52.258V37.4574C46.855 38.9198 41.5418 39.8827 35.6874 38.5838H35.6852Z" fill="#FF2745"/>
<path d="M16.1587 35.5964C18.0886 34.5528 19.8596 33.3077 21.454 31.8856C21.4563 31.8834 21.4608 31.8789 21.4608 31.8789C13.6788 29.8925 5.27294 32.4992 0 38.7921C5.53682 39.3856 11.2123 38.2726 16.1587 35.5964Z" fill="#FFB900"/>
<path d="M33.5608 40.9532C33.8515 40.6531 34.1377 40.3508 34.4195 40.0417C34.8555 39.567 35.2737 39.0788 35.6852 38.5838C35.8685 38.3644 36.0544 38.147 36.2332 37.9231C38.7199 34.8192 40.7593 31.3816 42.3112 27.6686C44.6056 22.1774 45.7192 16.3974 45.623 10.4852C45.5649 6.91771 45.0662 3.4107 44.1404 0H28.3462C29.8444 3.41294 30.6338 7.0252 30.6942 10.7315C30.7568 14.5655 30.0323 18.3211 28.5385 21.893C26.9173 25.774 24.5201 29.1444 21.4766 31.8653C21.4721 31.8653 21.4699 31.8631 21.4654 31.8609L21.461 31.8743C21.461 31.8743 21.4632 31.8743 21.4654 31.8743C21.4654 31.8743 21.461 31.8788 21.4587 31.881C19.8643 33.3031 18.0933 34.5482 16.1634 35.5918C11.217 38.268 5.54149 39.381 0.00467849 38.7875V52.614C0.00467849 52.614 9.25581 55.8948 22.7557 48.995C22.9033 48.9189 23.0509 48.845 23.2007 48.7666C27.8341 46.0949 33.5655 40.9509 33.5655 40.9509L33.5608 40.9532Z" fill="#00C3A8"/>
</g>
</g>
</svg>
