<svg width="125" height="65" viewBox="0 0 125 65" fill="none" xmlns="http://www.w3.org/2000/svg">
<g id="logo-muni en linea" clip-path="url(#clip0_60_211)">
<g id="Group">
<g id="Group_2">
<path id="Vector" d="M12.9607 39.2429C7.86082 39.2429 4.89478 43.6459 4.89478 48.128C4.89478 51.2373 6.47246 53.5595 10.3102 53.5595C13.2526 53.5595 15.3312 52.3727 15.8557 52.0048L14.9367 49.1842C13.9901 49.738 12.7832 50.2919 11.5211 50.2919C9.91576 50.2919 9.28863 49.291 9.31229 48.1042C12.1245 47.9183 17.1179 47.1271 17.1179 42.7004C17.1179 40.4337 15.5402 39.2469 12.9646 39.2469L12.9607 39.2429ZM9.57261 45.4379C9.91576 44.0138 10.7795 42.3523 12.3336 42.3523C12.8069 42.3523 13.2526 42.6173 13.2526 43.1949C13.2526 44.619 11.099 45.3548 9.57261 45.434V45.4379Z" fill="#EA600A"/>
<path id="Vector_2" d="M27.2033 39.2429C25.4441 39.2429 24.0755 39.955 23.05 41.0864L22.9987 39.6385H19.374L19.2162 42.3523L17.323 53.1322H21.6853L23.1841 44.5676C23.3695 43.46 24.0242 42.6173 25.1562 42.6173C25.945 42.6173 26.1541 43.1989 26.1541 43.725C26.1541 44.2511 26.0239 44.8327 25.945 45.252L24.5803 53.1322H28.9703L30.5992 43.9584C30.6781 43.456 30.7294 42.9299 30.7294 42.5105C30.7018 40.2438 29.3883 39.2429 27.2072 39.2429H27.2033Z" fill="#EA600A"/>
<g id="Group_3">
<path id="Vector_3" d="M44.1831 59.5329C43.2246 59.5329 42.7671 59.1571 42.7277 58.1562C42.7277 57.7804 42.7711 57.278 42.8539 56.7796L46.6403 35.3226H39.6906L35.9042 56.7796C35.7385 57.8239 35.6123 58.8248 35.6123 59.7426C35.6517 62.9587 36.9454 65.004 41.3551 65.004C43.2286 65.004 45.8909 64.462 47.5159 63.5007L46.7665 58.8683C45.7253 59.2876 44.8102 59.5369 44.187 59.5369L44.1831 59.5329Z" fill="#EA600A"/>
<path id="Vector_4" d="M49.1725 64.3354H56.1222L59.8692 42.9615H52.9195L49.1725 64.3354Z" fill="#EA600A"/>
<path id="Vector_5" d="M58.0391 33.4C55.5424 33.4 53.7123 35.2791 53.7123 37.4469C53.7123 39.1163 54.8364 40.3268 56.8322 40.3268C59.2894 40.3268 61.2023 38.5744 61.2023 36.359C61.2023 34.7292 59.9954 33.396 58.0391 33.396V33.4Z" fill="#EA600A"/>
<path id="Vector_6" d="M76.0997 42.3325C73.3111 42.3325 71.1458 43.4599 69.5247 45.2559L69.4419 42.9615H63.6991L63.4506 47.2616L60.453 64.3354H67.3633L69.7377 50.7665C70.0295 49.0141 71.0708 47.677 72.8575 47.677C74.1079 47.677 74.4392 48.5947 74.4392 49.4294C74.4392 50.2641 74.2301 51.1819 74.1079 51.8505L71.9425 64.3315H78.8922L81.4717 49.8053C81.5979 49.0141 81.6808 48.1754 81.6808 47.5108C81.6413 43.9188 79.5588 42.3325 76.1036 42.3325H76.0997Z" fill="#EA600A"/>
<path id="Vector_7" d="M96.2822 42.3325C88.2084 42.3325 83.5029 49.3029 83.5029 56.3998C83.5029 61.3249 85.9996 65 92.0776 65C96.7397 65 100.029 63.1209 100.861 62.5355L99.406 58.0692C97.9072 58.9474 95.9942 59.8217 93.9945 59.8217C91.4545 59.8217 90.4566 58.2354 90.5 56.3563C94.953 56.0635 102.861 54.8095 102.861 47.7996C102.861 44.2116 100.364 42.3325 96.2861 42.3325H96.2822ZM90.9141 52.1432C91.4545 49.8883 92.827 47.2576 95.2843 47.2576C96.0337 47.2576 96.7397 47.677 96.7397 48.5947C96.7397 50.8496 93.328 52.0166 90.9141 52.1432Z" fill="#EA600A"/>
<path id="Vector_8" d="M117.009 42.3325C108.312 42.3325 103.567 48.5947 103.567 57.1514C103.567 61.6612 105.563 64.9565 110.02 64.9565C112.517 64.9565 114.39 64.0387 115.845 62.3258L116.055 62.3693V64.3315H121.924L122.215 59.8217L125.004 44.0019C121.88 42.7479 118.76 42.3325 117.013 42.3325H117.009ZM115.802 57.6143C115.384 59.074 114.386 59.9918 112.97 59.9918C110.974 59.9918 110.513 58.3619 110.513 56.3602C110.513 52.9344 111.885 47.2181 115.676 47.2181C116.425 47.2181 117.092 47.3447 117.549 47.5543L115.802 57.6143Z" fill="#EA600A"/>
</g>
</g>
<g id="Group_4">
<path id="Vector_9" d="M12.9607 39.2429C7.86082 39.2429 4.89478 43.6459 4.89478 48.128C4.89478 51.2373 6.47246 53.5595 10.3102 53.5595C13.2526 53.5595 15.3312 52.3727 15.8557 52.0048L14.9367 49.1842C13.9901 49.738 12.7832 50.2919 11.5211 50.2919C9.91576 50.2919 9.28863 49.291 9.31229 48.1042C12.1245 47.9183 17.1179 47.1271 17.1179 42.7004C17.1179 40.4337 15.5402 39.2469 12.9646 39.2469L12.9607 39.2429ZM9.57261 45.4379C9.91576 44.0138 10.7795 42.3523 12.3336 42.3523C12.8069 42.3523 13.2526 42.6173 13.2526 43.1949C13.2526 44.619 11.099 45.3548 9.57261 45.434V45.4379Z" fill="url(#paint0_linear_60_211)"/>
<path id="Vector_10" d="M27.2033 39.2429C25.4441 39.2429 24.0755 39.955 23.05 41.0864L22.9987 39.6385H19.374L19.2162 42.3523L17.323 53.1322H21.6853L23.1841 44.5676C23.3695 43.46 24.0242 42.6173 25.1562 42.6173C25.945 42.6173 26.1541 43.1989 26.1541 43.725C26.1541 44.2511 26.0239 44.8327 25.945 45.252L24.5803 53.1322H28.9703L30.5992 43.9584C30.6781 43.456 30.7294 42.9299 30.7294 42.5105C30.7018 40.2438 29.3883 39.2429 27.2072 39.2429H27.2033Z" fill="url(#paint1_linear_60_211)"/>
<g id="Group_5">
<path id="Vector_11" d="M44.1831 59.5329C43.2246 59.5329 42.7671 59.1571 42.7277 58.1562C42.7277 57.7804 42.7711 57.278 42.8539 56.7796L46.6403 35.3226H39.6906L35.9042 56.7796C35.7385 57.8239 35.6123 58.8248 35.6123 59.7426C35.6517 62.9587 36.9454 65.004 41.3551 65.004C43.2286 65.004 45.8909 64.462 47.5159 63.5007L46.7665 58.8683C45.7253 59.2876 44.8102 59.5369 44.187 59.5369L44.1831 59.5329Z" fill="url(#paint2_linear_60_211)"/>
<path id="Vector_12" d="M49.1725 64.3354H56.1222L59.8692 42.9615H52.9195L49.1725 64.3354Z" fill="url(#paint3_linear_60_211)"/>
<path id="Vector_13" d="M58.0391 33.4C55.5424 33.4 53.7123 35.2791 53.7123 37.4469C53.7123 39.1163 54.8364 40.3268 56.8322 40.3268C59.2894 40.3268 61.2023 38.5744 61.2023 36.359C61.2023 34.7292 59.9954 33.396 58.0391 33.396V33.4Z" fill="url(#paint4_linear_60_211)"/>
<path id="Vector_14" d="M76.0997 42.3325C73.3111 42.3325 71.1458 43.4599 69.5247 45.2559L69.4419 42.9615H63.6991L63.4506 47.2616L60.453 64.3354H67.3633L69.7377 50.7665C70.0295 49.0141 71.0708 47.677 72.8575 47.677C74.1079 47.677 74.4392 48.5947 74.4392 49.4294C74.4392 50.2641 74.2301 51.1819 74.1079 51.8505L71.9425 64.3315H78.8922L81.4717 49.8053C81.5979 49.0141 81.6808 48.1754 81.6808 47.5108C81.6413 43.9188 79.5588 42.3325 76.1036 42.3325H76.0997Z" fill="url(#paint5_linear_60_211)"/>
<path id="Vector_15" d="M96.2822 42.3325C88.2084 42.3325 83.5029 49.3029 83.5029 56.3998C83.5029 61.3249 85.9996 65 92.0776 65C96.7397 65 100.029 63.1209 100.861 62.5355L99.406 58.0692C97.9072 58.9474 95.9942 59.8217 93.9945 59.8217C91.4545 59.8217 90.4566 58.2354 90.5 56.3563C94.953 56.0635 102.861 54.8095 102.861 47.7996C102.861 44.2116 100.364 42.3325 96.2861 42.3325H96.2822ZM90.9141 52.1432C91.4545 49.8883 92.827 47.2576 95.2843 47.2576C96.0337 47.2576 96.7397 47.677 96.7397 48.5947C96.7397 50.8496 93.328 52.0166 90.9141 52.1432Z" fill="url(#paint6_linear_60_211)"/>
<path id="Vector_16" d="M117.009 42.3325C108.312 42.3325 103.567 48.5947 103.567 57.1514C103.567 61.6612 105.563 64.9565 110.02 64.9565C112.517 64.9565 114.39 64.0387 115.845 62.3258L116.055 62.3693V64.3315H121.924L122.215 59.8217L125.004 44.0019C121.88 42.7479 118.76 42.3325 117.013 42.3325H117.009ZM115.802 57.6143C115.384 59.074 114.386 59.9918 112.97 59.9918C110.974 59.9918 110.513 58.3619 110.513 56.3602C110.513 52.9344 111.885 47.2181 115.676 47.2181C116.425 47.2181 117.092 47.3447 117.549 47.5543L115.802 57.6143Z" fill="url(#paint7_linear_60_211)"/>
</g>
</g>
</g>
<g id="Group_6">
<g id="Group_7">
<path id="Vector_17" d="M16.8536 18.7828H16.688L13.86 3.17264H6.44879L0 30.9314H6.74066L10.0696 16.6545H10.1958L12.6096 28.1346H17.6464L24.1386 16.4448H24.3042L22.557 30.9314H29.3016L32.7527 3.17264H25.3455L16.8536 18.7828Z" fill="#EA600A"/>
<path id="Vector_18" d="M45.5714 28.8427L45.8199 28.8862V30.9315H51.6455L51.9374 26.8806L54.935 9.55753H47.9853L45.6148 23.2925C45.3229 25.0055 44.0332 26.216 42.5778 26.216C41.2446 26.216 40.9133 25.5474 40.9133 24.5861C40.9133 24.1272 40.9961 23.5853 41.079 22.9998L43.4494 9.55753H36.4997L34.003 23.8345C33.8768 24.5861 33.794 25.4208 33.794 26.0459C33.794 29.6774 35.7503 31.4734 39.7458 31.4734C41.6588 31.4734 43.6979 30.8879 45.5714 28.8427Z" fill="#EA600A"/>
<path id="Vector_19" d="M64.839 17.3665C65.1308 15.6141 66.1721 14.2769 67.9588 14.2769C69.2092 14.2769 69.5405 15.1947 69.5405 16.0294C69.5405 16.8641 69.3314 17.7819 69.2091 18.4505L67.0438 30.9314H73.9935L76.573 16.4052C76.6992 15.6101 76.782 14.7754 76.782 14.1108C76.7387 10.5228 74.6601 8.93643 71.2049 8.93643C68.4164 8.93643 66.251 10.0639 64.6299 11.8599L64.5471 9.56543H58.8043L58.5558 13.8655L55.5582 30.9394H62.4685L64.839 17.3744V17.3665Z" fill="#EA600A"/>
<path id="Vector_20" d="M88.8907 9.55753H81.941L78.194 30.9315H85.1437L88.8907 9.55753Z" fill="#EA600A"/>
<path id="Vector_21" d="M85.8536 6.93078C88.3109 6.93078 90.2238 5.1783 90.2238 2.96693C90.2238 1.33709 89.0169 0.00393677 87.0606 0.00393677C84.5639 0.00393677 82.7338 1.88301 82.7338 4.05086C82.7338 5.72026 83.8579 6.93078 85.8536 6.93078Z" fill="#EA600A"/>
<path id="Vector_22" d="M96.1639 23.3875L102.199 25.3299C102.723 25.6147 103.413 26.2358 104.143 26.8925C105.188 27.83 106.265 28.7992 107.33 29.2344C109.038 29.9306 109.184 30.0691 109.894 30.7218C110.04 30.8563 110.205 31.0106 110.41 31.1886C110.714 31.4576 110.963 31.7504 111.416 32.3635C111.822 33.0202 112.517 33.4237 113.321 33.4712C113.44 33.4791 113.566 33.4831 113.7 33.4831C114.923 33.4831 116.808 33.1112 119.316 31.5526C121.959 29.9108 123.213 28.3166 123.805 27.2683C124.302 26.394 124.235 25.3299 123.635 24.5664C123.221 24.0442 122.858 23.4983 122.555 22.9444C121.683 21.3779 121.225 20.0724 120.642 18.0707C120.373 17.1411 119.999 16.2866 119.529 15.5231L114.146 6.80026C113.321 5.46315 111.74 5.10316 110.387 5.94182C110.02 6.17126 109.72 6.45609 109.507 6.78048C109.255 6.62224 108.975 6.50356 108.679 6.43235C107.973 6.27016 107.243 6.38884 106.628 6.76861C106.241 7.00992 105.922 7.34617 105.697 7.73781C104.833 7.21167 103.725 7.19585 102.845 7.74572C102.55 7.93165 102.293 8.16505 102.092 8.44197L99.9385 4.95283C99.1221 3.72254 97.501 3.37046 96.2467 4.14582C95.6314 4.52559 95.2015 5.12689 95.028 5.84292C94.8663 6.55103 94.9846 7.28288 95.3632 7.90001L102.179 18.945L97.6943 17.9956C96.1284 17.7661 94.9175 18.4307 94.4679 19.7757C94.1642 20.6737 94.2076 21.4728 94.5862 22.1453C94.9057 22.711 95.4539 23.1383 96.1718 23.3796L96.1639 23.3875ZM96.0811 20.3296C96.1245 20.199 96.2033 19.9617 96.4439 19.8113C96.6688 19.6729 96.9961 19.6333 97.3866 19.6887L103.78 21.0416C104.115 21.1128 104.459 20.9744 104.656 20.6935C104.853 20.4126 104.865 20.0408 104.683 19.748L96.8147 6.99805C96.6727 6.76861 96.6293 6.4996 96.6885 6.23851C96.7516 5.97346 96.9133 5.74798 97.1421 5.60952C97.6075 5.32073 98.1991 5.44732 98.491 5.88248L104.392 15.4479C104.64 15.8514 105.169 15.9741 105.575 15.7248C105.768 15.6062 105.906 15.4163 105.957 15.1908C106.009 14.9653 105.973 14.7359 105.851 14.542L103.417 10.6019C103.275 10.3725 103.232 10.1035 103.295 9.83842C103.358 9.57732 103.516 9.35184 103.745 9.20942C103.973 9.06701 104.246 9.02349 104.506 9.08679C104.77 9.15008 104.991 9.30832 105.133 9.53776L107.567 13.4779C107.685 13.6717 107.874 13.8102 108.099 13.8616C108.32 13.913 108.553 13.8774 108.746 13.7548C109.148 13.5056 109.271 12.9755 109.022 12.572L107.2 9.62084C106.908 9.14613 107.054 8.52504 107.527 8.2323C107.756 8.08989 108.024 8.04638 108.284 8.10571C108.549 8.16901 108.774 8.3312 108.912 8.56065L110.734 11.5118C110.982 11.9153 111.511 12.0379 111.913 11.7887C112.106 11.6661 112.244 11.4801 112.296 11.2546C112.347 11.0292 112.312 10.7997 112.189 10.6059L111.034 8.73075C110.864 8.45779 110.797 8.1967 110.832 7.97517C110.868 7.75364 111.018 7.56771 111.282 7.40156C111.554 7.23145 111.83 7.17211 112.071 7.22354C112.312 7.27497 112.524 7.44112 112.682 7.70221L118.066 16.4251C118.453 17.054 118.764 17.7661 118.993 18.5494C119.616 20.6777 120.105 22.0702 121.052 23.7752C121.403 24.4121 121.825 25.0411 122.298 25.6384C122.464 25.8481 122.468 26.1408 122.31 26.4177C121.817 27.292 120.744 28.641 118.413 30.0889C115.885 31.6594 114.209 31.8057 113.428 31.7543C113.175 31.7385 112.974 31.6317 112.868 31.4497L112.828 31.3904C112.268 30.6229 111.957 30.259 111.546 29.895C111.365 29.7328 111.215 29.5944 111.053 29.448C110.193 28.6568 109.89 28.4155 107.973 27.6322C107.188 27.3118 106.218 26.4415 105.275 25.5949C104.435 24.8393 103.642 24.1273 102.912 23.7554C102.873 23.7356 102.83 23.7198 102.79 23.704L96.6964 21.7418C96.4834 21.6706 96.2033 21.5361 96.0653 21.2909C95.9351 21.0614 95.9391 20.7331 96.0771 20.3177L96.0811 20.3296Z" fill="#EA600A"/>
</g>
<g id="Group_8">
<path id="Vector_23" d="M16.8536 18.7828H16.688L13.86 3.17264H6.44879L0 30.9314H6.74066L10.0696 16.6545H10.1958L12.6096 28.1346H17.6464L24.1386 16.4448H24.3042L22.557 30.9314H29.3016L32.7527 3.17264H25.3455L16.8536 18.7828Z" fill="url(#paint8_linear_60_211)"/>
<path id="Vector_24" d="M45.5714 28.8427L45.8199 28.8862V30.9315H51.6455L51.9374 26.8806L54.935 9.55753H47.9853L45.6148 23.2925C45.3229 25.0055 44.0332 26.216 42.5778 26.216C41.2446 26.216 40.9133 25.5474 40.9133 24.5861C40.9133 24.1272 40.9961 23.5853 41.079 22.9998L43.4494 9.55753H36.4997L34.003 23.8345C33.8768 24.5861 33.794 25.4208 33.794 26.0459C33.794 29.6774 35.7503 31.4734 39.7458 31.4734C41.6588 31.4734 43.6979 30.8879 45.5714 28.8427Z" fill="url(#paint9_linear_60_211)"/>
<path id="Vector_25" d="M64.839 17.3665C65.1308 15.6141 66.1721 14.2769 67.9588 14.2769C69.2092 14.2769 69.5405 15.1947 69.5405 16.0294C69.5405 16.8641 69.3314 17.7819 69.2091 18.4505L67.0438 30.9314H73.9935L76.573 16.4052C76.6992 15.6101 76.782 14.7754 76.782 14.1108C76.7387 10.5228 74.6601 8.93643 71.2049 8.93643C68.4164 8.93643 66.251 10.0639 64.6299 11.8599L64.5471 9.56543H58.8043L58.5558 13.8655L55.5582 30.9394H62.4685L64.839 17.3744V17.3665Z" fill="url(#paint10_linear_60_211)"/>
<path id="Vector_26" d="M88.8907 9.55753H81.941L78.194 30.9315H85.1437L88.8907 9.55753Z" fill="url(#paint11_linear_60_211)"/>
<path id="Vector_27" d="M85.8536 6.93078C88.3109 6.93078 90.2238 5.1783 90.2238 2.96693C90.2238 1.33709 89.0169 0.00393677 87.0606 0.00393677C84.5639 0.00393677 82.7338 1.88301 82.7338 4.05086C82.7338 5.72026 83.8579 6.93078 85.8536 6.93078Z" fill="url(#paint12_linear_60_211)"/>
<path id="Vector_28" d="M96.1639 23.3875L102.199 25.3299C102.723 25.6147 103.413 26.2358 104.143 26.8925C105.188 27.83 106.265 28.7992 107.33 29.2344C109.038 29.9306 109.184 30.0691 109.894 30.7218C110.04 30.8563 110.205 31.0106 110.41 31.1886C110.714 31.4576 110.963 31.7504 111.416 32.3635C111.822 33.0202 112.517 33.4237 113.321 33.4712C113.44 33.4791 113.566 33.4831 113.7 33.4831C114.923 33.4831 116.808 33.1112 119.316 31.5526C121.959 29.9108 123.213 28.3166 123.805 27.2683C124.302 26.394 124.235 25.3299 123.635 24.5664C123.221 24.0442 122.858 23.4983 122.555 22.9444C121.683 21.3779 121.225 20.0724 120.642 18.0707C120.373 17.1411 119.999 16.2866 119.529 15.5231L114.146 6.80026C113.321 5.46315 111.74 5.10316 110.387 5.94182C110.02 6.17126 109.72 6.45609 109.507 6.78048C109.255 6.62224 108.975 6.50356 108.679 6.43235C107.973 6.27016 107.243 6.38884 106.628 6.76861C106.241 7.00992 105.922 7.34617 105.697 7.73781C104.833 7.21167 103.725 7.19585 102.845 7.74572C102.55 7.93165 102.293 8.16505 102.092 8.44197L99.9385 4.95283C99.1221 3.72254 97.501 3.37046 96.2467 4.14582C95.6314 4.52559 95.2015 5.12689 95.028 5.84292C94.8663 6.55103 94.9846 7.28288 95.3632 7.90001L102.179 18.945L97.6943 17.9956C96.1284 17.7661 94.9175 18.4307 94.4679 19.7757C94.1642 20.6737 94.2076 21.4728 94.5862 22.1453C94.9057 22.711 95.4539 23.1383 96.1718 23.3796L96.1639 23.3875ZM96.0811 20.3296C96.1245 20.199 96.2033 19.9617 96.4439 19.8113C96.6688 19.6729 96.9961 19.6333 97.3866 19.6887L103.78 21.0416C104.115 21.1128 104.459 20.9744 104.656 20.6935C104.853 20.4126 104.865 20.0408 104.683 19.748L96.8147 6.99805C96.6727 6.76861 96.6293 6.4996 96.6885 6.23851C96.7516 5.97346 96.9133 5.74798 97.1421 5.60952C97.6075 5.32073 98.1991 5.44732 98.491 5.88248L104.392 15.4479C104.64 15.8514 105.169 15.9741 105.575 15.7248C105.768 15.6062 105.906 15.4163 105.957 15.1908C106.009 14.9653 105.973 14.7359 105.851 14.542L103.417 10.6019C103.275 10.3725 103.232 10.1035 103.295 9.83842C103.358 9.57732 103.516 9.35184 103.745 9.20942C103.973 9.06701 104.246 9.02349 104.506 9.08679C104.77 9.15008 104.991 9.30832 105.133 9.53776L107.567 13.4779C107.685 13.6717 107.874 13.8102 108.099 13.8616C108.32 13.913 108.553 13.8774 108.746 13.7548C109.148 13.5056 109.271 12.9755 109.022 12.572L107.2 9.62084C106.908 9.14613 107.054 8.52504 107.527 8.2323C107.756 8.08989 108.024 8.04638 108.284 8.10571C108.549 8.16901 108.774 8.3312 108.912 8.56065L110.734 11.5118C110.982 11.9153 111.511 12.0379 111.913 11.7887C112.106 11.6661 112.244 11.4801 112.296 11.2546C112.347 11.0292 112.312 10.7997 112.189 10.6059L111.034 8.73075C110.864 8.45779 110.797 8.1967 110.832 7.97517C110.868 7.75364 111.018 7.56771 111.282 7.40156C111.554 7.23145 111.83 7.17211 112.071 7.22354C112.312 7.27497 112.524 7.44112 112.682 7.70221L118.066 16.4251C118.453 17.054 118.764 17.7661 118.993 18.5494C119.616 20.6777 120.105 22.0702 121.052 23.7752C121.403 24.4121 121.825 25.0411 122.298 25.6384C122.464 25.8481 122.468 26.1408 122.31 26.4177C121.817 27.292 120.744 28.641 118.413 30.0889C115.885 31.6594 114.209 31.8057 113.428 31.7543C113.175 31.7385 112.974 31.6317 112.868 31.4497L112.828 31.3904C112.268 30.6229 111.957 30.259 111.546 29.895C111.365 29.7328 111.215 29.5944 111.053 29.448C110.193 28.6568 109.89 28.4155 107.973 27.6322C107.188 27.3118 106.218 26.4415 105.275 25.5949C104.435 24.8393 103.642 24.1273 102.912 23.7554C102.873 23.7356 102.83 23.7198 102.79 23.704L96.6964 21.7418C96.4834 21.6706 96.2033 21.5361 96.0653 21.2909C95.9351 21.0614 95.9391 20.7331 96.0771 20.3177L96.0811 20.3296Z" fill="url(#paint13_linear_60_211)"/>
</g>
</g>
</g>
<defs>
<linearGradient id="paint0_linear_60_211" x1="-1.95238" y1="45.2915" x2="125.336" y2="54.899" gradientUnits="userSpaceOnUse">
<stop stop-color="#FFB900"/>
<stop offset="1" stop-color="#00C3A8"/>
</linearGradient>
<linearGradient id="paint1_linear_60_211" x1="-1.95237" y1="45.2915" x2="125.336" y2="54.899" gradientUnits="userSpaceOnUse">
<stop stop-color="#FFB900"/>
<stop offset="1" stop-color="#00C3A8"/>
</linearGradient>
<linearGradient id="paint2_linear_60_211" x1="-1.95238" y1="45.2915" x2="125.336" y2="54.899" gradientUnits="userSpaceOnUse">
<stop stop-color="#FFB900"/>
<stop offset="1" stop-color="#00C3A8"/>
</linearGradient>
<linearGradient id="paint3_linear_60_211" x1="-1.9524" y1="45.2915" x2="125.336" y2="54.899" gradientUnits="userSpaceOnUse">
<stop stop-color="#FFB900"/>
<stop offset="1" stop-color="#00C3A8"/>
</linearGradient>
<linearGradient id="paint4_linear_60_211" x1="-1.95241" y1="45.2915" x2="125.336" y2="54.899" gradientUnits="userSpaceOnUse">
<stop stop-color="#FFB900"/>
<stop offset="1" stop-color="#00C3A8"/>
</linearGradient>
<linearGradient id="paint5_linear_60_211" x1="-1.95232" y1="45.2915" x2="125.336" y2="54.899" gradientUnits="userSpaceOnUse">
<stop stop-color="#FFB900"/>
<stop offset="1" stop-color="#00C3A8"/>
</linearGradient>
<linearGradient id="paint6_linear_60_211" x1="-1.95239" y1="45.2915" x2="125.336" y2="54.899" gradientUnits="userSpaceOnUse">
<stop stop-color="#FFB900"/>
<stop offset="1" stop-color="#00C3A8"/>
</linearGradient>
<linearGradient id="paint7_linear_60_211" x1="-1.9524" y1="45.2915" x2="125.336" y2="54.899" gradientUnits="userSpaceOnUse">
<stop stop-color="#FFB900"/>
<stop offset="1" stop-color="#00C3A8"/>
</linearGradient>
<linearGradient id="paint8_linear_60_211" x1="-10.9412" y1="8.51315" x2="120.922" y2="25.2004" gradientUnits="userSpaceOnUse">
<stop stop-color="#FF2745"/>
<stop offset="0.13" stop-color="#FF3040"/>
<stop offset="0.34" stop-color="#FF4934"/>
<stop offset="0.62" stop-color="#FF7320"/>
<stop offset="0.93" stop-color="#FFAC06"/>
<stop offset="1" stop-color="#FFB900"/>
</linearGradient>
<linearGradient id="paint9_linear_60_211" x1="-10.9413" y1="8.51316" x2="120.922" y2="25.2004" gradientUnits="userSpaceOnUse">
<stop stop-color="#FF2745"/>
<stop offset="0.13" stop-color="#FF3040"/>
<stop offset="0.34" stop-color="#FF4934"/>
<stop offset="0.62" stop-color="#FF7320"/>
<stop offset="0.93" stop-color="#FFAC06"/>
<stop offset="1" stop-color="#FFB900"/>
</linearGradient>
<linearGradient id="paint10_linear_60_211" x1="-10.9412" y1="8.51315" x2="120.922" y2="25.2004" gradientUnits="userSpaceOnUse">
<stop stop-color="#FF2745"/>
<stop offset="0.13" stop-color="#FF3040"/>
<stop offset="0.34" stop-color="#FF4934"/>
<stop offset="0.62" stop-color="#FF7320"/>
<stop offset="0.93" stop-color="#FFAC06"/>
<stop offset="1" stop-color="#FFB900"/>
</linearGradient>
<linearGradient id="paint11_linear_60_211" x1="-10.9413" y1="8.51316" x2="120.922" y2="25.2004" gradientUnits="userSpaceOnUse">
<stop stop-color="#FF2745"/>
<stop offset="0.13" stop-color="#FF3040"/>
<stop offset="0.34" stop-color="#FF4934"/>
<stop offset="0.62" stop-color="#FF7320"/>
<stop offset="0.93" stop-color="#FFAC06"/>
<stop offset="1" stop-color="#FFB900"/>
</linearGradient>
<linearGradient id="paint12_linear_60_211" x1="-10.9413" y1="8.51316" x2="120.922" y2="25.2004" gradientUnits="userSpaceOnUse">
<stop stop-color="#FF2745"/>
<stop offset="0.13" stop-color="#FF3040"/>
<stop offset="0.34" stop-color="#FF4934"/>
<stop offset="0.62" stop-color="#FF7320"/>
<stop offset="0.93" stop-color="#FFAC06"/>
<stop offset="1" stop-color="#FFB900"/>
</linearGradient>
<linearGradient id="paint13_linear_60_211" x1="-10.9412" y1="8.51318" x2="120.922" y2="25.2004" gradientUnits="userSpaceOnUse">
<stop stop-color="#FF2745"/>
<stop offset="0.13" stop-color="#FF3040"/>
<stop offset="0.34" stop-color="#FF4934"/>
<stop offset="0.62" stop-color="#FF7320"/>
<stop offset="0.93" stop-color="#FFAC06"/>
<stop offset="1" stop-color="#FFB900"/>
</linearGradient>
<clipPath id="clip0_60_211">
<rect width="125" height="65" fill="white"/>
</clipPath>
</defs>
</svg>
