<svg xmlns="http://www.w3.org/2000/svg" width="125" height="65" viewBox="0 0 125 65" fill="none">
  <g clip-path="url(#clip0_442_1176)">
    <path d="M12.91 38.97C7.83 38.97 4.88 43.34 4.88 47.79C4.88 50.88 6.45001 53.18 10.27 53.18C13.2 53.18 15.27 52 15.79 51.64L14.87 48.84C13.93 49.39 12.72 49.94 11.47 49.94C9.87001 49.94 9.25001 48.95 9.27001 47.77C12.07 47.59 17.04 46.8 17.04 42.4C17.04 40.15 15.47 38.97 12.9 38.97H12.91ZM9.53 45.12C9.87 43.71 10.73 42.06 12.28 42.06C12.75 42.06 13.2 42.32 13.2 42.9C13.2 44.31 11.05 45.05 9.54 45.12H9.53Z" fill="#EA600A"/>
    <path d="M27.09 38.97C25.34 38.97 23.98 39.68 22.95 40.8L22.9 39.36H19.29L19.13 42.06L17.25 52.76H21.59L23.08 44.25C23.26 43.15 23.92 42.31 25.04 42.31C25.83 42.31 26.03 42.89 26.03 43.41C26.03 43.93 25.9 44.51 25.82 44.93L24.46 52.75H28.83L30.45 43.64C30.53 43.14 30.58 42.62 30.58 42.2C30.55 39.95 29.25 38.95 27.07 38.95L27.09 38.97Z" fill="#EA600A"/>
    <path d="M44 59.11C43.05 59.11 42.59 58.74 42.55 57.74C42.55 57.37 42.59 56.87 42.67 56.37L46.44 35.07H39.52L35.75 56.37C35.58 57.41 35.46 58.4 35.46 59.31C35.5 62.5 36.79 64.53 41.18 64.53C43.05 64.53 45.7 63.99 47.31 63.04L46.56 58.44C45.52 58.85 44.61 59.1 43.99 59.1L44 59.11Z" fill="#EA600A"/>
    <path d="M48.97 63.88H55.89L59.62 42.66H52.7L48.97 63.88Z" fill="#EA600A"/>
    <path d="M57.8 33.16C55.31 33.16 53.49 35.02 53.49 37.18C53.49 38.84 54.61 40.04 56.6 40.04C59.05 40.04 60.95 38.3 60.95 36.1C60.95 34.48 59.75 33.16 57.8 33.16Z" fill="#EA600A"/>
    <path d="M75.7799 42.03C72.9999 42.03 70.85 43.15 69.23 44.93L69.15 42.65H63.43L63.18 46.92L60.2 63.87H67.08L69.44 50.4C69.73 48.66 70.77 47.33 72.55 47.33C73.79 47.33 74.1299 48.24 74.1299 49.07C74.1299 49.9 73.92 50.81 73.8 51.47L71.6399 63.86H78.5599L81.1299 49.44C81.2499 48.65 81.3399 47.82 81.3399 47.16C81.2999 43.59 79.23 42.02 75.79 42.02L75.7799 42.03Z" fill="#EA600A"/>
    <path d="M95.88 42.03C87.84 42.03 83.16 48.95 83.16 56C83.16 60.89 85.65 64.54 91.7 64.54C96.34 64.54 99.62 62.67 100.45 62.09L99 57.65C97.51 58.52 95.6 59.39 93.61 59.39C91.08 59.39 90.09 57.82 90.13 55.95C94.56 55.66 102.44 54.42 102.44 47.45C102.44 43.89 99.95 42.02 95.89 42.02L95.88 42.03ZM90.53 51.77C91.07 49.53 92.44 46.92 94.88 46.92C95.63 46.92 96.33 47.33 96.33 48.25C96.33 50.49 92.93 51.65 90.53 51.77Z" fill="#EA600A"/>
    <path d="M116.52 42.03C107.86 42.03 103.13 48.25 103.13 56.74C103.13 61.22 105.12 64.49 109.55 64.49C112.04 64.49 113.9 63.58 115.35 61.88L115.56 61.92V63.87H121.4L121.69 59.39L124.47 43.68C121.36 42.44 118.25 42.02 116.51 42.02L116.52 42.03ZM115.32 57.2C114.91 58.65 113.91 59.56 112.5 59.56C110.51 59.56 110.05 57.94 110.05 55.95C110.05 52.55 111.42 46.87 115.19 46.87C115.94 46.87 116.6 47 117.05 47.2L115.31 57.19L115.32 57.2Z" fill="#EA600A"/>
    <path d="M12.91 38.97C7.83 38.97 4.88 43.34 4.88 47.79C4.88 50.88 6.45001 53.18 10.27 53.18C13.2 53.18 15.27 52 15.79 51.64L14.87 48.84C13.93 49.39 12.72 49.94 11.47 49.94C9.87001 49.94 9.25001 48.95 9.27001 47.77C12.07 47.59 17.04 46.8 17.04 42.4C17.04 40.15 15.47 38.97 12.9 38.97H12.91ZM9.53 45.12C9.87 43.71 10.73 42.06 12.28 42.06C12.75 42.06 13.2 42.32 13.2 42.9C13.2 44.31 11.05 45.05 9.54 45.12H9.53Z" fill="url(#paint0_linear_442_1176)"/>
    <path d="M27.09 38.97C25.34 38.97 23.98 39.68 22.95 40.8L22.9 39.36H19.29L19.13 42.06L17.25 52.76H21.59L23.08 44.25C23.26 43.15 23.92 42.31 25.04 42.31C25.83 42.31 26.03 42.89 26.03 43.41C26.03 43.93 25.9 44.51 25.82 44.93L24.46 52.75H28.83L30.45 43.64C30.53 43.14 30.58 42.62 30.58 42.2C30.55 39.95 29.25 38.95 27.07 38.95L27.09 38.97Z" fill="url(#paint1_linear_442_1176)"/>
    <path d="M44 59.11C43.05 59.11 42.59 58.74 42.55 57.74C42.55 57.37 42.59 56.87 42.67 56.37L46.44 35.07H39.52L35.75 56.37C35.58 57.41 35.46 58.4 35.46 59.31C35.5 62.5 36.79 64.53 41.18 64.53C43.05 64.53 45.7 63.99 47.31 63.04L46.56 58.44C45.52 58.85 44.61 59.1 43.99 59.1L44 59.11Z" fill="url(#paint2_linear_442_1176)"/>
    <path d="M48.97 63.88H55.89L59.62 42.66H52.7L48.97 63.88Z" fill="url(#paint3_linear_442_1176)"/>
    <path d="M57.8 33.16C55.31 33.16 53.49 35.02 53.49 37.18C53.49 38.84 54.61 40.04 56.6 40.04C59.05 40.04 60.95 38.3 60.95 36.1C60.95 34.48 59.75 33.16 57.8 33.16Z" fill="url(#paint4_linear_442_1176)"/>
    <path d="M75.7799 42.03C72.9999 42.03 70.85 43.15 69.23 44.93L69.15 42.65H63.43L63.18 46.92L60.2 63.87H67.08L69.44 50.4C69.73 48.66 70.77 47.33 72.55 47.33C73.79 47.33 74.1299 48.24 74.1299 49.07C74.1299 49.9 73.92 50.81 73.8 51.47L71.6399 63.86H78.5599L81.1299 49.44C81.2499 48.65 81.3399 47.82 81.3399 47.16C81.2999 43.59 79.23 42.02 75.79 42.02L75.7799 42.03Z" fill="url(#paint5_linear_442_1176)"/>
    <path d="M95.88 42.03C87.84 42.03 83.16 48.95 83.16 56C83.16 60.89 85.65 64.54 91.7 64.54C96.34 64.54 99.62 62.67 100.45 62.09L99 57.65C97.51 58.52 95.6 59.39 93.61 59.39C91.08 59.39 90.09 57.82 90.13 55.95C94.56 55.66 102.44 54.42 102.44 47.45C102.44 43.89 99.95 42.02 95.89 42.02L95.88 42.03ZM90.53 51.77C91.07 49.53 92.44 46.92 94.88 46.92C95.63 46.92 96.33 47.33 96.33 48.25C96.33 50.49 92.93 51.65 90.53 51.77Z" fill="url(#paint6_linear_442_1176)"/>
    <path d="M116.52 42.03C107.86 42.03 103.13 48.25 103.13 56.74C103.13 61.22 105.12 64.49 109.55 64.49C112.04 64.49 113.9 63.58 115.35 61.88L115.56 61.92V63.87H121.4L121.69 59.39L124.47 43.68C121.36 42.44 118.25 42.02 116.51 42.02L116.52 42.03ZM115.32 57.2C114.91 58.65 113.91 59.56 112.5 59.56C110.51 59.56 110.05 57.94 110.05 55.95C110.05 52.55 111.42 46.87 115.19 46.87C115.94 46.87 116.6 47 117.05 47.2L115.31 57.19L115.32 57.2Z" fill="url(#paint7_linear_442_1176)"/>
    <path d="M16.79 18.65H16.62L13.8 3.14999H6.42L0 30.71H6.71L10.03 16.54H10.15L12.56 27.93H17.57L24.04 16.33H24.2L22.46 30.71H29.18L32.62 3.14999H25.24L16.79 18.65Z" fill="url(#paint8_linear_442_1176)"/>
    <path d="M45.42 23.13C45.13 24.83 43.85 26.03 42.39 26.03C41.06 26.03 40.73 25.37 40.73 24.41C40.73 23.95 40.81 23.42 40.9 22.84L43.26 9.48999H36.34L33.85 23.66C33.73 24.41 33.64 25.23 33.64 25.86C33.64 29.47 35.59 31.25 39.57 31.25C41.48 31.25 43.51 30.67 45.37 28.64L45.62 28.68V30.71H51.42L51.71 26.69L54.69 9.48999H47.77L45.41 23.13H45.42Z" fill="url(#paint9_linear_442_1176)"/>
    <path d="M70.91 8.86999C68.13 8.86999 65.98 9.98999 64.36 11.77L64.28 9.48999H58.56L58.31 13.76L55.33 30.71H62.21L64.57 17.24C64.86 15.5 65.9 14.17 67.68 14.17C68.92 14.17 69.25 15.08 69.25 15.91C69.25 16.74 69.04 17.65 68.92 18.31L66.77 30.7H73.69L76.26 16.28C76.38 15.49 76.47 14.66 76.47 14C76.43 10.44 74.36 8.85999 70.92 8.85999L70.91 8.86999Z" fill="url(#paint10_linear_442_1176)"/>
    <path d="M77.87 30.71H84.79L88.52 9.48999H81.6L77.87 30.71Z" fill="url(#paint11_linear_442_1176)"/>
    <path d="M86.7 0C84.21 0 82.39 1.86 82.39 4.02C82.39 5.68 83.51 6.88 85.5 6.88C87.95 6.88 89.85 5.14 89.85 2.94C89.85 1.32 88.65 0 86.7 0Z" fill="url(#paint12_linear_442_1176)"/>
    <path d="M123.9 17.65L119.01 8.57001C117.81 6.17001 114.21 6.15001 113.04 8.50001C111.32 7.11001 108.49 7.93001 107.84 10.07C106.32 9.11001 104.08 9.66001 103.23 11.27L100.04 5.34001C98.71 2.71001 94.64 3.01001 93.84 5.83001C92.66 7.78001 99.44 17.64 100.02 19.45C97.12 18.39 91.88 18.49 92.74 22.86C94.09 27.11 98.39 22.83 107.11 31.36C110.81 34.71 115.93 33.85 120.42 30.84C127.2 27.19 124.68 19.09 123.91 17.64L123.9 17.65ZM119.67 29.46C114.78 32.68 110.72 32.79 107.61 29.74C104.3 26.96 100.55 23.81 95.93 23.71C94.19 23.75 93.56 21.43 95.06 20.64C97.04 19.69 100.29 21.73 101.89 21.48C102.14 21.44 102.32 21.2 102.3 20.94C102.07 18.3 94.45 7.81001 95.32 6.32001C95.76 4.80001 97.92 4.67001 98.64 6.11001L105.54 18.07C105.89 18.79 107.21 18.46 107.01 17.7C106.8 16.87 104.25 13.5 104.28 12.72C104.33 10.81 106.79 10.06 107.82 11.79C108.45 12.86 109.38 14.29 109.9 15.3C109.9 15.3 110.39 16.25 110.62 16.52C110.99 16.97 111.97 16.58 111.88 16C111.61 14.28 107.53 10.65 110.02 9.11001C112.49 7.62001 114.09 12.33 114.99 13.94C115.24 14.4 115.69 14.45 116.05 14.3C116.41 14.15 116.55 13.71 116.36 13.37C115.85 12.45 114.61 10.19 114.61 10.19C113.58 7.67001 116.79 6.87001 117.61 9.32001C119.67 14.64 128.54 23.14 119.65 29.47L119.67 29.46Z" fill="url(#paint13_linear_442_1176)"/>
  </g>
  <defs>
    <linearGradient id="paint0_linear_442_1176" x1="-1.95" y1="44.97" x2="124.81" y2="54.57" gradientUnits="userSpaceOnUse">
      <stop stop-color="#FFB900"/>
      <stop offset="1" stop-color="#00C3A8"/>
    </linearGradient>
    <linearGradient id="paint1_linear_442_1176" x1="-1.95" y1="44.97" x2="124.81" y2="54.57" gradientUnits="userSpaceOnUse">
      <stop stop-color="#FFB900"/>
      <stop offset="1" stop-color="#00C3A8"/>
    </linearGradient>
    <linearGradient id="paint2_linear_442_1176" x1="-1.94999" y1="44.97" x2="124.81" y2="54.57" gradientUnits="userSpaceOnUse">
      <stop stop-color="#FFB900"/>
      <stop offset="1" stop-color="#00C3A8"/>
    </linearGradient>
    <linearGradient id="paint3_linear_442_1176" x1="-1.95002" y1="44.97" x2="124.81" y2="54.57" gradientUnits="userSpaceOnUse">
      <stop stop-color="#FFB900"/>
      <stop offset="1" stop-color="#00C3A8"/>
    </linearGradient>
    <linearGradient id="paint4_linear_442_1176" x1="-1.95001" y1="44.97" x2="124.81" y2="54.57" gradientUnits="userSpaceOnUse">
      <stop stop-color="#FFB900"/>
      <stop offset="1" stop-color="#00C3A8"/>
    </linearGradient>
    <linearGradient id="paint5_linear_442_1176" x1="-1.95004" y1="44.97" x2="124.81" y2="54.57" gradientUnits="userSpaceOnUse">
      <stop stop-color="#FFB900"/>
      <stop offset="1" stop-color="#00C3A8"/>
    </linearGradient>
    <linearGradient id="paint6_linear_442_1176" x1="-1.94996" y1="44.97" x2="124.81" y2="54.57" gradientUnits="userSpaceOnUse">
      <stop stop-color="#FFB900"/>
      <stop offset="1" stop-color="#00C3A8"/>
    </linearGradient>
    <linearGradient id="paint7_linear_442_1176" x1="-1.95002" y1="44.97" x2="124.81" y2="54.57" gradientUnits="userSpaceOnUse">
      <stop stop-color="#FFB900"/>
      <stop offset="1" stop-color="#00C3A8"/>
    </linearGradient>
    <linearGradient id="paint8_linear_442_1176" x1="0" y1="16.76" x2="125" y2="16.76" gradientUnits="userSpaceOnUse">
      <stop stop-color="#FF2745"/>
      <stop offset="0.35" stop-color="#FF5F2A"/>
      <stop offset="0.79" stop-color="#FF9F0B"/>
      <stop offset="1" stop-color="#FFB900"/>
    </linearGradient>
    <linearGradient id="paint9_linear_442_1176" x1="1.57987e-05" y1="16.76" x2="125" y2="16.76" gradientUnits="userSpaceOnUse">
      <stop stop-color="#FF2745"/>
      <stop offset="0.35" stop-color="#FF5F2A"/>
      <stop offset="0.79" stop-color="#FF9F0B"/>
      <stop offset="1" stop-color="#FFB900"/>
    </linearGradient>
    <linearGradient id="paint10_linear_442_1176" x1="-4.35541e-05" y1="16.76" x2="125" y2="16.76" gradientUnits="userSpaceOnUse">
      <stop stop-color="#FF2745"/>
      <stop offset="0.35" stop-color="#FF5F2A"/>
      <stop offset="0.79" stop-color="#FF9F0B"/>
      <stop offset="1" stop-color="#FFB900"/>
    </linearGradient>
    <linearGradient id="paint11_linear_442_1176" x1="4.04178e-05" y1="16.76" x2="125" y2="16.76" gradientUnits="userSpaceOnUse">
      <stop stop-color="#FF2745"/>
      <stop offset="0.35" stop-color="#FF5F2A"/>
      <stop offset="0.79" stop-color="#FF9F0B"/>
      <stop offset="1" stop-color="#FFB900"/>
    </linearGradient>
    <linearGradient id="paint12_linear_442_1176" x1="2.1781e-05" y1="16.76" x2="125" y2="16.76" gradientUnits="userSpaceOnUse">
      <stop stop-color="#FF2745"/>
      <stop offset="0.35" stop-color="#FF5F2A"/>
      <stop offset="0.79" stop-color="#FF9F0B"/>
      <stop offset="1" stop-color="#FFB900"/>
    </linearGradient>
    <linearGradient id="paint13_linear_442_1176" x1="-5.30018e-06" y1="16.76" x2="125" y2="16.76" gradientUnits="userSpaceOnUse">
      <stop stop-color="#FF2745"/>
      <stop offset="0.35" stop-color="#FF5F2A"/>
      <stop offset="0.79" stop-color="#FF9F0B"/>
      <stop offset="1" stop-color="#FFB900"/>
    </linearGradient>
    <clipPath id="clip0_442_1176">
      <rect width="125" height="64.54" fill="white"/>
    </clipPath>
  </defs>
</svg>