<svg xmlns="http://www.w3.org/2000/svg" width="93" height="45" viewBox="0 0 93 45" fill="none">
  <g clip-path="url(#clip0_442_770)">
    <path d="M17.966 13.3601H17.8473L15.7885 2.23778H10.4843L5.9721 21.8087H10.7409L13.0674 11.772H13.1861L14.8668 19.8374H18.3827L23.0467 11.4777H23.135L21.802 21.8087H26.6012L29.2092 2.23778H23.9657L17.966 13.3601Z" fill="white"/>
    <path d="M37.8748 16.4502C37.6485 17.6274 36.7268 18.452 35.7001 18.452C34.4693 18.452 34.4969 17.5386 34.748 16.2142L36.5556 6.73834H31.5909L29.6894 16.8611C29.0215 20.4232 30.3269 22.189 33.6634 22.189C35.2144 22.189 36.7323 21.6004 37.872 20.3927H37.988L37.919 21.8059H42.0448L42.2821 18.9518L44.6776 6.73834H39.7432L37.8693 16.4502H37.8748Z" fill="white"/>
    <path d="M56.2354 6.29689C54.2539 6.29689 52.7057 7.09094 51.508 8.35698L51.5383 6.73834H47.4318L47.1862 9.77017L44.8018 21.8087H49.6589L51.577 12.2745C51.8309 11.0085 52.7278 10.0673 53.9366 10.0673C55.1453 10.0673 55.0432 11.0085 54.7672 12.3633L52.8465 21.8115H57.7616L59.8866 11.511C60.6289 7.92109 59.1304 6.30244 56.2327 6.30244L56.2354 6.29689Z" fill="white"/>
    <path d="M67.6911 0C66.0601 0 64.8238 1.08835 64.5423 2.44324C64.247 3.85643 65.039 4.88648 66.6673 4.88648C68.2955 4.88648 69.5181 3.85643 69.8162 2.44324C70.1032 1.08835 69.2642 0 67.6911 0Z" fill="white"/>
    <path d="M60.6593 21.8087H65.5744L68.7592 6.73834H63.7971L60.6593 21.8087Z" fill="white"/>
    <path d="M89.3166 15.1675C88.6901 14.5983 87.8815 14.2846 87.037 14.2846C86.0794 14.2846 85.1604 14.6955 84.5146 15.4118L83.8936 16.1032C83.6701 16.353 83.4852 16.6279 83.3444 16.9278C80.9959 15.906 79.042 14.1069 77.8194 11.8469C78.2389 11.6554 78.6225 11.3722 78.9344 11.0279L79.5553 10.3366C80.1652 9.65912 80.4743 8.78455 80.4274 7.87111C80.3832 6.96045 79.9858 6.1192 79.3125 5.50561L78.2665 4.55331C77.64 3.98414 76.8314 3.67041 75.987 3.67041C75.0266 3.67041 74.1076 4.08132 73.4645 4.79485L72.8436 5.48618C72.7581 5.58335 72.6753 5.68608 72.598 5.79158C71.8942 6.42738 71.334 7.81836 71.6597 9.51197C73.0395 16.739 79.0917 22.2446 86.3747 22.9026C86.532 22.9165 86.692 22.9248 86.8493 22.9248C87.7104 22.9248 88.5079 22.7138 89.151 22.3168C89.4628 22.1335 89.7416 21.9086 89.9789 21.6449L90.5998 20.9535C91.8555 19.557 91.7479 17.3886 90.3597 16.1254L89.311 15.1731L89.3166 15.1675ZM89.7967 20.215L89.1758 20.9063C89.013 21.0868 88.8253 21.2395 88.599 21.3728C88.0277 21.7254 87.2743 21.8836 86.4795 21.8087C79.6767 21.1951 74.0248 16.0532 72.736 9.30374C72.471 7.92942 72.9595 6.92991 73.3486 6.59119C73.3652 6.57731 73.3845 6.56065 73.3983 6.54121L73.4287 6.5079C73.4452 6.49124 73.459 6.4718 73.4728 6.45237C73.528 6.36908 73.5915 6.29134 73.6577 6.21915L74.2787 5.52783C74.7147 5.04195 75.3384 4.76431 75.9925 4.76431C76.5665 4.76431 77.1157 4.9781 77.5407 5.36402L78.5894 6.31633C79.0475 6.73279 79.3152 7.30195 79.3456 7.92387C79.3759 8.543 79.1662 9.13715 78.7522 9.59804L78.1313 10.2894C77.847 10.6031 77.4883 10.8335 77.0853 10.9557L76.8977 11.014C76.7431 11.0612 76.6189 11.1723 76.5555 11.3194C76.492 11.4693 76.4975 11.6359 76.5665 11.7803L76.6548 11.958C78.043 14.7622 80.3998 16.9389 83.2975 18.0911L83.4604 18.1549C83.5983 18.2077 83.7557 18.2049 83.8909 18.141C84.0261 18.0772 84.1282 17.9606 84.1779 17.819L84.2331 17.6524C84.3352 17.347 84.4953 17.0721 84.7105 16.8334L85.3315 16.142C85.7675 15.6562 86.394 15.3757 87.0453 15.3757C87.6165 15.3757 88.1685 15.5895 88.5935 15.9754L89.6422 16.9278C90.586 17.7857 90.6605 19.2572 89.805 20.2095L89.7967 20.215Z" fill="white"/>
    <path d="M82.6821 1.49094C82.1992 1.49094 81.8073 1.88519 81.8073 2.37106C81.8073 2.85693 82.1992 3.25118 82.6821 3.25118C87.2302 3.25118 90.9282 6.97156 90.9282 11.5471C90.9282 12.033 91.3201 12.4272 91.8031 12.4272C92.286 12.4272 92.6779 12.033 92.6779 11.5471C92.6779 5.99982 88.1933 1.48816 82.6821 1.48816V1.49094ZM91.8031 12.0052C91.5519 12.0052 91.3477 11.7997 91.3477 11.5471C91.3477 6.73834 87.4592 2.82639 82.6793 2.82639C82.4282 2.82639 82.224 2.62093 82.224 2.36828C82.224 2.11563 82.4282 1.91017 82.6793 1.91017C87.9587 1.91017 92.2557 6.23304 92.2557 11.5443C92.2557 11.797 92.0515 12.0024 91.8003 12.0024L91.8031 12.0052Z" fill="white"/>
    <path d="M87.6717 11.6581C87.6717 12.144 88.0636 12.5383 88.5466 12.5383C89.0295 12.5383 89.4214 12.144 89.4214 11.6581C89.4214 7.85723 86.3498 4.76709 82.5717 4.76709C82.0888 4.76709 81.6969 5.16134 81.6969 5.64721C81.6969 6.13308 82.0888 6.52733 82.5717 6.52733C85.3839 6.52733 87.669 8.82897 87.669 11.6554L87.6717 11.6581ZM82.1191 5.64721C82.1191 5.39456 82.3233 5.1891 82.5745 5.1891C86.1208 5.1891 89.0019 8.09045 89.0019 11.6554C89.0019 11.908 88.7977 12.1135 88.5466 12.1135C88.2954 12.1135 88.0912 11.908 88.0912 11.6554C88.0912 8.59298 85.6157 6.10254 82.5717 6.10254C82.3206 6.10254 82.1164 5.89709 82.1164 5.64443L82.1191 5.64721Z" fill="white"/>
    <path d="M26.4688 24.077L23.066 39.2056C22.7679 40.53 22.9528 41.1491 23.8912 41.1491C24.33 41.1491 24.9647 40.9437 25.7071 40.6494L26.0189 43.9172C24.8405 44.5946 22.9915 45.0056 21.6751 45.0056C17.1408 45.0056 17.4527 42.4152 18.0764 39.5916L21.515 24.0825H26.4715L26.4688 24.077Z" fill="white"/>
    <path d="M36.4673 24.077L32.9625 39.2056C32.6561 40.53 32.8355 41.1491 33.7738 41.1491C34.2126 41.1491 34.8474 40.9437 35.5925 40.6494L35.8823 43.9172C34.6983 44.5946 32.8465 45.0056 31.5301 45.0056C26.9959 45.0056 27.3243 42.4152 27.9701 39.5916L31.5108 24.0825H36.4673V24.077Z" fill="white"/>
    <path d="M50.3268 41.3518L49.8742 44.5308H45.718L45.8477 43.1481L45.6794 43.1176C44.4678 44.5002 42.9803 44.9722 41.4597 44.9722C36.9834 44.9722 36.6909 41.3518 37.5547 37.6731C38.769 32.4923 42.2159 29.019 47.5974 29.019C48.6627 29.019 50.876 29.2828 53.0479 30.1962L50.3268 41.349V41.3518ZM47.5394 32.6977C47.2442 32.5811 46.764 32.4923 46.2313 32.4923C44.3133 32.4923 43.1183 34.7884 42.5167 37.3177C41.9786 39.5832 41.9399 41.4684 43.6399 41.4684C44.7825 41.4684 45.6269 40.6438 45.8312 39.7915L47.5367 32.6977H47.5394Z" fill="white"/>
    <path d="M52.5926 44.5308L55.5538 32.4923L55.9457 29.4604H60.0246L59.9556 31.0486C61.1781 29.8131 62.5911 29.019 64.5423 29.019C66.2561 29.019 67.498 29.6076 67.9533 30.9625C69.1455 29.7547 70.6054 29.019 72.4986 29.019C75.3964 29.019 76.7514 30.6376 75.8159 34.2275L73.1389 44.528H68.2514L70.6744 35.0799C71.0139 33.7555 71.0856 32.7838 69.9072 32.7838C68.7288 32.7838 68.0527 33.6972 67.7298 34.9605L65.2957 44.5252H60.4082L62.7816 35.0771C63.1072 33.7833 63.2397 32.781 62.0309 32.781C60.8221 32.781 60.1819 33.6945 59.859 34.9883L57.4828 44.5225H52.5953L52.5926 44.5308Z" fill="white"/>
    <path d="M89.6808 41.3518L89.1427 44.5308H84.9865L85.1521 43.1481L84.9837 43.1176C83.7363 44.5002 82.235 44.9722 80.7144 44.9722C76.2381 44.9722 76.0449 41.3518 77.0053 37.6731C78.3603 32.4923 81.8983 29.019 87.2826 29.019C88.3479 29.019 90.5529 29.2828 92.7 30.1962L89.6808 41.349V41.3518ZM87.1253 32.6977C86.8328 32.5811 86.3553 32.4923 85.8227 32.4923C83.9047 32.4923 82.649 34.7884 81.9784 37.3177C81.3795 39.5832 81.2912 41.4684 82.9912 41.4684C84.1337 41.4684 85.0003 40.6438 85.2294 39.7915L87.1253 32.6977Z" fill="white"/>
    <path d="M3.9768 24.077L3.72566 27.5836H6.13216L5.9445 30.0935H3.54628L3.26754 33.9638C3.19303 35.016 3.66771 35.2853 4.31901 35.2853C4.68054 35.2853 5.03654 35.1521 5.37323 34.9799L5.90862 36.9928C5.29044 37.376 4.2169 37.7008 3.15163 37.7008C-0.085552 37.7008 -0.0883119 35.8045 0.0413963 33.8888L0.714775 24.0798H3.97956L3.9768 24.077Z" fill="white"/>
    <path d="M14.8337 30.2823C14.6018 33.0587 11.4171 33.6167 9.53494 33.7306C9.54321 34.5913 10.1366 35.302 11.3012 35.302C12.2174 35.302 13.0895 34.8994 13.7353 34.4969L14.4004 36.6041C14.2983 36.6985 12.7859 37.6953 10.6526 37.6953C7.3023 37.6953 6.14044 35.6657 6.35846 32.7533C6.57648 29.8408 8.42276 27.2921 11.7151 27.2921C13.7353 27.2921 15.002 28.2694 14.8337 30.2795V30.2823ZM11.3619 29.5354C10.4015 29.5354 9.695 30.4738 9.53218 31.7954C10.5726 31.7371 11.9718 31.2596 12.0463 30.3211C12.0849 29.8408 11.8228 29.5354 11.3619 29.5354Z" fill="white"/>
    <path d="M26.4688 24.077L23.066 39.2056C22.7679 40.53 22.9528 41.1491 23.8912 41.1491C24.33 41.1491 24.9647 40.9437 25.7071 40.6494L26.0189 43.9172C24.8405 44.5946 22.9915 45.0056 21.6751 45.0056C17.1408 45.0056 17.4527 42.4152 18.0764 39.5916L21.515 24.0825H26.4715L26.4688 24.077Z" fill="white"/>
    <path d="M36.4673 24.077L32.9625 39.2056C32.6561 40.53 32.8355 41.1491 33.7738 41.1491C34.2126 41.1491 34.8474 40.9437 35.5925 40.6494L35.8823 43.9172C34.6983 44.5946 32.8465 45.0056 31.5301 45.0056C26.9959 45.0056 27.3243 42.4152 27.9701 39.5916L31.5108 24.0825H36.4673V24.077Z" fill="white"/>
    <path d="M50.3268 41.3518L49.8742 44.5308H45.718L45.8477 43.1481L45.6794 43.1176C44.4678 44.5002 42.9803 44.9722 41.4597 44.9722C36.9834 44.9722 36.6909 41.3518 37.5547 37.6731C38.769 32.4923 42.2159 29.019 47.5974 29.019C48.6627 29.019 50.876 29.2828 53.0479 30.1962L50.3268 41.349V41.3518ZM47.5394 32.6977C47.2442 32.5811 46.764 32.4923 46.2313 32.4923C44.3133 32.4923 43.1183 34.7884 42.5167 37.3177C41.9786 39.5832 41.9399 41.4684 43.6399 41.4684C44.7825 41.4684 45.6269 40.6438 45.8312 39.7915L47.5367 32.6977H47.5394Z" fill="white"/>
    <path d="M52.5926 44.5308L55.5538 32.4923L55.9457 29.4604H60.0246L59.9556 31.0486C61.1781 29.8131 62.5911 29.019 64.5423 29.019C66.2561 29.019 67.498 29.6076 67.9533 30.9625C69.1455 29.7547 70.6054 29.019 72.4986 29.019C75.3964 29.019 76.7514 30.6376 75.8159 34.2275L73.1389 44.528H68.2514L70.6744 35.0799C71.0139 33.7555 71.0856 32.7838 69.9072 32.7838C68.7288 32.7838 68.0527 33.6972 67.7298 34.9605L65.2957 44.5252H60.4082L62.7816 35.0771C63.1072 33.7833 63.2397 32.781 62.0309 32.781C60.8221 32.781 60.1819 33.6945 59.859 34.9883L57.4828 44.5225H52.5953L52.5926 44.5308Z" fill="white"/>
    <path d="M89.6808 41.3518L89.1427 44.5308H84.9865L85.1521 43.1481L84.9837 43.1176C83.7363 44.5002 82.235 44.9722 80.7144 44.9722C76.2381 44.9722 76.0449 41.3518 77.0053 37.6731C78.3603 32.4923 81.8983 29.019 87.2826 29.019C88.3479 29.019 90.5529 29.2828 92.7 30.1962L89.6808 41.349V41.3518ZM87.1253 32.6977C86.8328 32.5811 86.3553 32.4923 85.8227 32.4923C83.9047 32.4923 82.649 34.7884 81.9784 37.3177C81.3795 39.5832 81.2912 41.4684 82.9912 41.4684C84.1337 41.4684 85.0003 40.6438 85.2294 39.7915L87.1253 32.6977Z" fill="white"/>
    <path d="M26.4688 24.077L23.066 39.2056C22.7679 40.53 22.9528 41.1491 23.8912 41.1491C24.33 41.1491 24.9647 40.9437 25.7071 40.6494L26.0189 43.9172C24.8405 44.5946 22.9915 45.0056 21.6751 45.0056C17.1408 45.0056 17.4527 42.4152 18.0764 39.5916L21.515 24.0825H26.4715L26.4688 24.077Z" fill="white"/>
    <path d="M36.4673 24.077L32.9625 39.2056C32.6561 40.53 32.8355 41.1491 33.7738 41.1491C34.2126 41.1491 34.8474 40.9437 35.5925 40.6494L35.8823 43.9172C34.6983 44.5946 32.8465 45.0056 31.5301 45.0056C26.9959 45.0056 27.3243 42.4152 27.9701 39.5916L31.5108 24.0825H36.4673V24.077Z" fill="white"/>
    <path d="M50.3268 41.3518L49.8742 44.5308H45.718L45.8477 43.1481L45.6794 43.1176C44.4678 44.5002 42.9803 44.9722 41.4597 44.9722C36.9834 44.9722 36.6909 41.3518 37.5547 37.6731C38.769 32.4923 42.2159 29.019 47.5974 29.019C48.6627 29.019 50.876 29.2828 53.0479 30.1962L50.3268 41.349V41.3518ZM47.5394 32.6977C47.2442 32.5811 46.764 32.4923 46.2313 32.4923C44.3133 32.4923 43.1183 34.7884 42.5167 37.3177C41.9786 39.5832 41.9399 41.4684 43.6399 41.4684C44.7825 41.4684 45.6269 40.6438 45.8312 39.7915L47.5367 32.6977H47.5394Z" fill="white"/>
    <path d="M52.5926 44.5308L55.5538 32.4923L55.9457 29.4604H60.0246L59.9556 31.0486C61.1781 29.8131 62.5911 29.019 64.5423 29.019C66.2561 29.019 67.498 29.6076 67.9533 30.9625C69.1455 29.7547 70.6054 29.019 72.4986 29.019C75.3964 29.019 76.7514 30.6376 75.8159 34.2275L73.1389 44.528H68.2514L70.6744 35.0799C71.0139 33.7555 71.0856 32.7838 69.9072 32.7838C68.7288 32.7838 68.0527 33.6972 67.7298 34.9605L65.2957 44.5252H60.4082L62.7816 35.0771C63.1072 33.7833 63.2397 32.781 62.0309 32.781C60.8221 32.781 60.1819 33.6945 59.859 34.9883L57.4828 44.5225H52.5953L52.5926 44.5308Z" fill="white"/>
    <path d="M89.6808 41.3518L89.1427 44.5308H84.9865L85.1521 43.1481L84.9837 43.1176C83.7363 44.5002 82.235 44.9722 80.7144 44.9722C76.2381 44.9722 76.0449 41.3518 77.0053 37.6731C78.3603 32.4923 81.8983 29.019 87.2826 29.019C88.3479 29.019 90.5529 29.2828 92.7 30.1962L89.6808 41.349V41.3518ZM87.1253 32.6977C86.8328 32.5811 86.3553 32.4923 85.8227 32.4923C83.9047 32.4923 82.649 34.7884 81.9784 37.3177C81.3795 39.5832 81.2912 41.4684 82.9912 41.4684C84.1337 41.4684 85.0003 40.6438 85.2294 39.7915L87.1253 32.6977Z" fill="white"/>
    <path d="M26.4688 24.077L23.066 39.2056C22.7679 40.53 22.9528 41.1491 23.8912 41.1491C24.33 41.1491 24.9647 40.9437 25.7071 40.6494L26.0189 43.9172C24.8405 44.5946 22.9915 45.0056 21.6751 45.0056C17.1408 45.0056 17.4527 42.4152 18.0764 39.5916L21.515 24.0825H26.4715L26.4688 24.077Z" fill="white"/>
    <path d="M36.4673 24.077L32.9625 39.2056C32.6561 40.53 32.8355 41.1491 33.7738 41.1491C34.2126 41.1491 34.8474 40.9437 35.5925 40.6494L35.8823 43.9172C34.6983 44.5946 32.8465 45.0056 31.5301 45.0056C26.9959 45.0056 27.3243 42.4152 27.9701 39.5916L31.5108 24.0825H36.4673V24.077Z" fill="white"/>
    <path d="M50.3268 41.3518L49.8742 44.5308H45.718L45.8477 43.1481L45.6794 43.1176C44.4678 44.5002 42.9803 44.9722 41.4597 44.9722C36.9834 44.9722 36.6909 41.3518 37.5547 37.6731C38.769 32.4923 42.2159 29.019 47.5974 29.019C48.6627 29.019 50.876 29.2828 53.0479 30.1962L50.3268 41.349V41.3518ZM47.5394 32.6977C47.2442 32.5811 46.764 32.4923 46.2313 32.4923C44.3133 32.4923 43.1183 34.7884 42.5167 37.3177C41.9786 39.5832 41.9399 41.4684 43.6399 41.4684C44.7825 41.4684 45.6269 40.6438 45.8312 39.7915L47.5367 32.6977H47.5394Z" fill="white"/>
    <path d="M52.5926 44.5308L55.5538 32.4923L55.9457 29.4604H60.0246L59.9556 31.0486C61.1781 29.8131 62.5911 29.019 64.5423 29.019C66.2561 29.019 67.498 29.6076 67.9533 30.9625C69.1455 29.7547 70.6054 29.019 72.4986 29.019C75.3964 29.019 76.7514 30.6376 75.8159 34.2275L73.1389 44.528H68.2514L70.6744 35.0799C71.0139 33.7555 71.0856 32.7838 69.9072 32.7838C68.7288 32.7838 68.0527 33.6972 67.7298 34.9605L65.2957 44.5252H60.4082L62.7816 35.0771C63.1072 33.7833 63.2397 32.781 62.0309 32.781C60.8221 32.781 60.1819 33.6945 59.859 34.9883L57.4828 44.5225H52.5953L52.5926 44.5308Z" fill="white"/>
    <path d="M89.6808 41.3518L89.1427 44.5308H84.9865L85.1521 43.1481L84.9837 43.1176C83.7363 44.5002 82.235 44.9722 80.7144 44.9722C76.2381 44.9722 76.0449 41.3518 77.0053 37.6731C78.3603 32.4923 81.8983 29.019 87.2826 29.019C88.3479 29.019 90.5529 29.2828 92.7 30.1962L89.6808 41.349V41.3518ZM87.1253 32.6977C86.8328 32.5811 86.3553 32.4923 85.8227 32.4923C83.9047 32.4923 82.649 34.7884 81.9784 37.3177C81.3795 39.5832 81.2912 41.4684 82.9912 41.4684C84.1337 41.4684 85.0003 40.6438 85.2294 39.7915L87.1253 32.6977Z" fill="white"/>
    <path d="M3.9768 24.077L3.72566 27.5836H6.13216L5.9445 30.0935H3.54628L3.26754 33.9638C3.19303 35.016 3.66771 35.2853 4.31901 35.2853C4.68054 35.2853 5.03654 35.1521 5.37323 34.9799L5.90862 36.9928C5.29044 37.376 4.2169 37.7008 3.15163 37.7008C-0.085552 37.7008 -0.0883119 35.8045 0.0413963 33.8888L0.714775 24.0798H3.97956L3.9768 24.077Z" fill="white"/>
    <path d="M14.8337 30.2823C14.6018 33.0587 11.4171 33.6167 9.53494 33.7306C9.54321 34.5913 10.1366 35.302 11.3012 35.302C12.2174 35.302 13.0895 34.8994 13.7353 34.4969L14.4004 36.6041C14.2983 36.6985 12.7859 37.6953 10.6526 37.6953C7.3023 37.6953 6.14044 35.6657 6.35846 32.7533C6.57648 29.8408 8.42276 27.2921 11.7151 27.2921C13.7353 27.2921 15.002 28.2694 14.8337 30.2795V30.2823ZM11.3619 29.5354C10.4015 29.5354 9.695 30.4738 9.53218 31.7954C10.5726 31.7371 11.9718 31.2596 12.0463 30.3211C12.0849 29.8408 11.8228 29.5354 11.3619 29.5354Z" fill="white"/>
    <path d="M3.9768 24.077L3.72566 27.5836H6.13216L5.9445 30.0935H3.54628L3.26754 33.9638C3.19303 35.016 3.66771 35.2853 4.31901 35.2853C4.68054 35.2853 5.03654 35.1521 5.37323 34.9799L5.90862 36.9928C5.29044 37.376 4.2169 37.7008 3.15163 37.7008C-0.085552 37.7008 -0.0883119 35.8045 0.0413963 33.8888L0.714775 24.0798H3.97956L3.9768 24.077Z" fill="white"/>
    <path d="M14.8337 30.2823C14.6018 33.0587 11.4171 33.6167 9.53494 33.7306C9.54321 34.5913 10.1366 35.302 11.3012 35.302C12.2174 35.302 13.0895 34.8994 13.7353 34.4969L14.4004 36.6041C14.2983 36.6985 12.7859 37.6953 10.6526 37.6953C7.3023 37.6953 6.14044 35.6657 6.35846 32.7533C6.57648 29.8408 8.42276 27.2921 11.7151 27.2921C13.7353 27.2921 15.002 28.2694 14.8337 30.2795V30.2823ZM11.3619 29.5354C10.4015 29.5354 9.695 30.4738 9.53218 31.7954C10.5726 31.7371 11.9718 31.2596 12.0463 30.3211C12.0849 29.8408 11.8228 29.5354 11.3619 29.5354Z" fill="white"/>
    <path d="M3.9768 24.077L3.72566 27.5836H6.13216L5.9445 30.0935H3.54628L3.26754 33.9638C3.19303 35.016 3.66771 35.2853 4.31901 35.2853C4.68054 35.2853 5.03654 35.1521 5.37323 34.9799L5.90862 36.9928C5.29044 37.376 4.2169 37.7008 3.15163 37.7008C-0.085552 37.7008 -0.0883119 35.8045 0.0413963 33.8888L0.714775 24.0798H3.97956L3.9768 24.077Z" fill="white"/>
    <path d="M14.8337 30.2823C14.6018 33.0587 11.4171 33.6167 9.53494 33.7306C9.54321 34.5913 10.1366 35.302 11.3012 35.302C12.2174 35.302 13.0895 34.8994 13.7353 34.4969L14.4004 36.6041C14.2983 36.6985 12.7859 37.6953 10.6526 37.6953C7.3023 37.6953 6.14044 35.6657 6.35846 32.7533C6.57648 29.8408 8.42276 27.2921 11.7151 27.2921C13.7353 27.2921 15.002 28.2694 14.8337 30.2795V30.2823ZM11.3619 29.5354C10.4015 29.5354 9.695 30.4738 9.53218 31.7954C10.5726 31.7371 11.9718 31.2596 12.0463 30.3211C12.0849 29.8408 11.8228 29.5354 11.3619 29.5354Z" fill="white"/>
  </g>
  <defs>
    <clipPath id="clip0_442_770">
      <rect width="92.7" height="45" fill="white"/>
    </clipPath>
  </defs>
</svg>