<svg width="113" height="48" viewBox="0 0 113 48" fill="none" xmlns="http://www.w3.org/2000/svg">
<g id="muni-al-telefono" clip-path="url(#clip0_271_609)">
<g id="Group">
<path id="Vector" d="M61.6124 3.19955L56.1922 13.5499H56.0847L54.1303 3.19955H49.2769L45.0879 21.4067H49.5375L51.658 12.0694H51.7655L53.3681 19.5732H56.6417L60.8697 11.7982H60.9511L59.8502 21.4067H64.3225L66.4137 3.19955H61.6124Z" fill="url(#paint0_linear_271_609)"/>
<g id="Group_2">
<path id="Vector_2" d="M61.6124 3.19955L56.1922 13.5499H56.0847L54.1303 3.19955H49.2769L45.0879 21.4067H49.5375L51.658 12.0694H51.7655L53.3681 19.5732H56.6417L60.8697 11.7982H60.9511L59.8502 21.4067H64.3225L66.4137 3.19955H61.6124Z" fill="white"/>
<path id="Vector_3" d="M80.6971 7.38939H76.1629L74.684 16.4227C74.5049 17.5175 73.671 18.2856 72.7166 18.2856C71.5733 18.2856 71.5765 17.4358 71.7785 16.2037L73.228 7.38939H68.6678L67.1042 16.8083C66.5537 20.1223 67.8078 21.7629 70.9186 21.7629C72.3648 21.7629 73.7655 21.2139 74.7915 20.0929H74.899L74.8762 21.4067H78.7231L78.8534 18.7496L80.6938 7.38939H80.6971Z" fill="white"/>
<path id="Vector_4" d="M91.2964 6.9776C89.4788 6.9776 88.0847 7.71622 87.0261 8.89277L86.9935 7.38613H83.2182L83.0912 10.2066L81.2899 21.4034H85.8176L87.2313 12.5335C87.4202 11.357 88.2117 10.4811 89.3257 10.4811C90.4397 10.4811 90.3844 11.357 90.1824 12.6152L88.7915 21.4034H93.3746L94.8762 11.8211C95.4006 8.48097 93.9544 6.97433 91.2932 6.97433L91.2964 6.9776Z" fill="white"/>
<path id="Vector_5" d="M100.811 5.66378C102.251 5.66378 103.375 4.7062 103.577 3.39238C103.779 2.07857 102.951 1.12099 101.515 1.12099C100.078 1.12099 98.9446 2.13413 98.7492 3.39238C98.5537 4.65064 99.316 5.66378 100.811 5.66378Z" fill="white"/>
<path id="Vector_6" d="M96.0782 21.4067H100.661L102.824 7.38939H98.2606L96.0782 21.4067Z" fill="white"/>
</g>
</g>
<g id="Group_3">
<g id="Group_4">
<path id="Vector_7" d="M23.8502 39.238C22.9283 39.238 22.2932 38.8556 22.57 37.3489L23.5896 31.8192H26.9707L27.6254 28.2339H24.2541L25.1759 23.2238H20.6287L18.0098 37.2411C17.4984 39.9798 17.1824 42.6892 21.8078 42.6892C23.3322 42.6892 24.912 42.2251 25.8567 41.676L25.4039 38.8C24.8958 39.0451 24.3746 39.238 23.8567 39.238H23.8502Z" fill="white"/>
<path id="Vector_8" d="M33.7818 39.2674C32.127 39.2674 31.3844 38.2542 31.4951 37.0221C34.1824 36.8587 38.7687 36.0645 39.4625 32.0937C39.9674 29.2177 38.3225 27.8221 35.4886 27.8221C30.8762 27.8221 27.8599 31.6557 27.1368 35.6233C26.3811 39.7837 27.7296 42.6859 32.5179 42.6859C35.5668 42.6859 37.8534 41.261 38.0163 41.127L37.3485 38.117C36.3779 38.6922 35.0814 39.2674 33.7785 39.2674H33.7818ZM34.6775 31.025C35.3257 31.025 35.6547 31.4629 35.5309 32.146C35.2932 33.4859 33.2476 34.1722 31.772 34.254C32.1922 32.3649 33.3257 31.025 34.6743 31.025H34.6775Z" fill="white"/>
<path id="Vector_9" d="M45.6743 39.1007C44.8046 39.1007 44.6059 38.5255 44.8176 37.2934L47.2345 23.2205H42.7427L40.228 37.6496C39.7687 40.2773 39.5961 42.6859 43.8111 42.6859C45.0358 42.6859 46.7329 42.3035 47.7915 41.6728L47.329 38.6333C46.658 38.9079 46.0814 39.0974 45.6743 39.0974V39.1007Z" fill="white"/>
<path id="Vector_10" d="M57.215 24.8416C57.6221 24.4755 57.8143 24.2173 57.8567 23.9559C57.9707 23.2696 57.1596 22.9166 56.671 22.7793L54.2866 25.907L54.9023 26.5312C55.4756 26.1488 56.5309 25.4168 57.2117 24.8383L57.215 24.8416Z" fill="white"/>
<path id="Vector_11" d="M55.557 39.2674C53.9023 39.2674 53.1466 38.2542 53.2443 37.0221C55.9283 36.8587 60.5049 36.0645 61.1531 32.0937C61.6222 29.2177 59.9609 27.8221 57.127 27.8221C52.5147 27.8221 49.544 31.6557 48.8697 35.6233C48.1629 39.7837 49.5505 42.6859 54.3355 42.6859C57.3844 42.6859 59.6547 41.261 59.8143 41.127L59.1107 38.117C58.1466 38.6922 56.8599 39.2674 55.557 39.2674ZM56.3518 31.025C57 31.025 57.3322 31.4629 57.2215 32.146C57 33.4859 54.9642 34.1722 53.4886 34.254C53.886 32.3649 55.0033 31.025 56.3518 31.025Z" fill="white"/>
<path id="Vector_12" d="M69.7883 25.8776C70.355 25.8776 71.5277 26.1227 72.1726 26.4789L73.6938 23.4689C72.759 22.9231 70.8274 22.5375 69.5375 22.5375C64.9642 22.5375 64.0098 25.4396 63.5993 27.9856L60.3583 47.9967H64.9153L67.4951 31.8159H71.2248L71.7883 28.2307H68.0651L68.1824 27.4921C68.3713 26.3155 68.9251 25.8776 69.7883 25.8776Z" fill="white"/>
<path id="Vector_13" d="M78.8404 27.8221C75.899 27.8221 71.9511 29.6033 71.0489 35.3521C70.2671 40.3361 72.2899 42.6892 76.1792 42.6892C80.0684 42.6892 83.3192 40.0615 84.0912 34.9141C85.0554 28.4823 81 27.8221 78.8404 27.8221ZM76.8827 39.3491C75.2801 39.3491 75.3713 37.1855 75.7329 34.8324C76.0945 32.4793 76.8762 31.11 78.1466 31.11C79.5244 31.11 79.7687 32.5349 79.342 35.3259C78.9153 38.117 78.2117 39.3491 76.8827 39.3491Z" fill="white"/>
<path id="Vector_14" d="M94.7036 27.8221C92.8958 27.8221 91.5212 28.5608 90.4853 29.7373L90.4365 28.2307H86.684L86.5896 31.0511L84.9251 42.248H89.4397L90.7362 33.3781C90.9088 32.2015 91.684 31.3257 92.7915 31.3257C93.899 31.3257 93.8534 32.2015 93.671 33.4598L92.4007 42.248H96.9707L98.329 32.6656C98.8013 29.3255 97.3453 27.8189 94.7003 27.8189L94.7036 27.8221Z" fill="white"/>
<path id="Vector_15" d="M107.515 27.8221C104.573 27.8221 100.655 29.6033 99.8469 35.3521C99.1466 40.3361 101.208 42.6892 105.098 42.6892C108.987 42.6892 112.195 40.0615 112.883 34.9141C113.743 28.4823 109.674 27.8221 107.518 27.8221H107.515ZM105.746 39.3491C104.143 39.3491 104.199 37.1855 104.524 34.8324C104.85 32.4793 105.606 31.11 106.876 31.11C108.254 31.11 108.521 32.5349 108.14 35.3259C107.775 38.0091 107.075 39.3491 105.746 39.3491Z" fill="white"/>
</g>
<g id="Group_5">
<path id="Vector_16" d="M23.8502 39.238C22.9283 39.238 22.2932 38.8556 22.57 37.3489L23.5896 31.8192H26.9707L27.6254 28.2339H24.2541L25.1759 23.2238H20.6287L18.0098 37.2411C17.4984 39.9798 17.1824 42.6892 21.8078 42.6892C23.3322 42.6892 24.912 42.2251 25.8567 41.676L25.4039 38.8C24.8958 39.0451 24.3746 39.238 23.8567 39.238H23.8502Z" fill="white"/>
<path id="Vector_17" d="M33.7818 39.2674C32.127 39.2674 31.3844 38.2542 31.4951 37.0221C34.1824 36.8587 38.7687 36.0645 39.4625 32.0937C39.9674 29.2177 38.3225 27.8221 35.4886 27.8221C30.8762 27.8221 27.8599 31.6557 27.1368 35.6233C26.3811 39.7837 27.7296 42.6859 32.5179 42.6859C35.5668 42.6859 37.8534 41.261 38.0163 41.127L37.3485 38.117C36.3779 38.6922 35.0814 39.2674 33.7785 39.2674H33.7818ZM34.6775 31.025C35.3257 31.025 35.6547 31.4629 35.5309 32.146C35.2932 33.4859 33.2476 34.1722 31.772 34.254C32.1922 32.3649 33.3257 31.025 34.6743 31.025H34.6775Z" fill="white"/>
<path id="Vector_18" d="M45.6743 39.1007C44.8046 39.1007 44.6059 38.5255 44.8176 37.2934L47.2345 23.2205H42.7427L40.228 37.6496C39.7687 40.2773 39.5961 42.6859 43.8111 42.6859C45.0358 42.6859 46.7329 42.3035 47.7915 41.6728L47.329 38.6333C46.658 38.9079 46.0814 39.0974 45.6743 39.0974V39.1007Z" fill="white"/>
<path id="Vector_19" d="M57.215 24.8416C57.6221 24.4755 57.8143 24.2173 57.8567 23.9559C57.9707 23.2696 57.1596 22.9166 56.671 22.7793L54.2866 25.907L54.9023 26.5312C55.4756 26.1488 56.5309 25.4168 57.2117 24.8383L57.215 24.8416Z" fill="white"/>
<path id="Vector_20" d="M55.557 39.2674C53.9023 39.2674 53.1466 38.2542 53.2443 37.0221C55.9283 36.8587 60.5049 36.0645 61.1531 32.0937C61.6222 29.2177 59.9609 27.8221 57.127 27.8221C52.5147 27.8221 49.544 31.6557 48.8697 35.6233C48.1629 39.7837 49.5505 42.6859 54.3355 42.6859C57.3844 42.6859 59.6547 41.261 59.8143 41.127L59.1107 38.117C58.1466 38.6922 56.8599 39.2674 55.557 39.2674ZM56.3518 31.025C57 31.025 57.3322 31.4629 57.2215 32.146C57 33.4859 54.9642 34.1722 53.4886 34.254C53.886 32.3649 55.0033 31.025 56.3518 31.025Z" fill="white"/>
<path id="Vector_21" d="M69.7883 25.8776C70.355 25.8776 71.5277 26.1227 72.1726 26.4789L73.6938 23.4689C72.759 22.9231 70.8274 22.5375 69.5375 22.5375C64.9642 22.5375 64.0098 25.4396 63.5993 27.9856L60.3583 47.9967H64.9153L67.4951 31.8159H71.2248L71.7883 28.2307H68.0651L68.1824 27.4921C68.3713 26.3155 68.9251 25.8776 69.7883 25.8776Z" fill="white"/>
<path id="Vector_22" d="M78.8404 27.8221C75.899 27.8221 71.9511 29.6033 71.0489 35.3521C70.2671 40.3361 72.2899 42.6892 76.1792 42.6892C80.0684 42.6892 83.3192 40.0615 84.0912 34.9141C85.0554 28.4823 81 27.8221 78.8404 27.8221ZM76.8827 39.3491C75.2801 39.3491 75.3713 37.1855 75.7329 34.8324C76.0945 32.4793 76.8762 31.11 78.1466 31.11C79.5244 31.11 79.7687 32.5349 79.342 35.3259C78.9153 38.117 78.2117 39.3491 76.8827 39.3491Z" fill="white"/>
<path id="Vector_23" d="M94.7036 27.8221C92.8958 27.8221 91.5212 28.5608 90.4853 29.7373L90.4365 28.2307H86.684L86.5896 31.0511L84.9251 42.248H89.4397L90.7362 33.3781C90.9088 32.2015 91.684 31.3257 92.7915 31.3257C93.899 31.3257 93.8534 32.2015 93.671 33.4598L92.4007 42.248H96.9707L98.329 32.6656C98.8013 29.3255 97.3453 27.8189 94.7003 27.8189L94.7036 27.8221Z" fill="white"/>
<path id="Vector_24" d="M107.515 27.8221C104.573 27.8221 100.655 29.6033 99.8469 35.3521C99.1466 40.3361 101.208 42.6892 105.098 42.6892C108.987 42.6892 112.195 40.0615 112.883 34.9141C113.743 28.4823 109.674 27.8221 107.518 27.8221H107.515ZM105.746 39.3491C104.143 39.3491 104.199 37.1855 104.524 34.8324C104.85 32.4793 105.606 31.11 106.876 31.11C108.254 31.11 108.521 32.5349 108.14 35.3259C107.775 38.0091 107.075 39.3491 105.746 39.3491Z" fill="white"/>
</g>
</g>
<g id="Group_6">
<path id="Vector_25" d="M8.75896 27.0607C7.37785 26.5149 6.04235 26.358 5.41042 26.358C2.22476 26.358 0.521173 28.43 0.302932 31.5218C0.149837 33.718 0.680782 35.8783 3.36156 35.8783C4.27362 35.8783 5.11401 35.5972 5.69707 34.7703L5.8013 34.7867L5.86645 35.6135H8.35179L8.29316 33.7147L8.75896 27.0574V27.0607ZM5.45277 32.7865C5.41694 33.2964 4.99674 33.7866 4.31596 33.7866C3.29967 33.7866 3.13355 32.6624 3.22801 31.3093C3.33225 29.7994 3.81433 28.4268 4.95114 28.4268C5.2671 28.4268 5.56026 28.4791 5.74919 28.551L5.45277 32.7865Z" fill="white"/>
<path id="Vector_26" d="M14.8013 33.2964C14.3876 33.4729 14.0261 33.5938 13.7655 33.5938C13.2052 33.5938 13.0391 33.2245 13.0945 32.4336L13.7231 23.4035H10.798L10.1531 32.6623C10.0358 34.3487 10.0847 35.8946 12.798 35.8946C13.5863 35.8946 14.6547 35.6495 15.2964 35.2442L14.8013 33.2931V33.2964Z" fill="white"/>
</g>
<g id="Group_7">
<path id="Vector_27" d="M42.2932 15.2821L41.1954 14.2853C40.5375 13.6905 39.6905 13.3636 38.8078 13.3636C37.8046 13.3636 36.8404 13.7918 36.1661 14.5402L35.5147 15.2625C35.2801 15.5207 35.0879 15.8115 34.9381 16.1253C32.4788 15.0566 30.43 13.1774 29.1498 10.8145C29.5896 10.6118 29.9935 10.3177 30.3192 9.95819L30.9707 9.23592C31.6091 8.52672 31.9349 7.61489 31.886 6.66058C31.8404 5.70953 31.4234 4.83039 30.7199 4.18982L29.6221 3.19629C28.9674 2.60148 28.1173 2.27466 27.2345 2.27466C26.228 2.27466 25.2671 2.70279 24.5928 3.45121L23.9446 4.17348C23.8534 4.27479 23.7687 4.38264 23.6873 4.49376C22.9511 5.15721 22.3616 6.61155 22.7036 8.37965C24.1498 15.9292 30.4886 21.6812 38.1173 22.3675C38.2834 22.3839 38.4495 22.3904 38.6156 22.3904C39.5179 22.3904 40.3518 22.1714 41.0261 21.7531C41.355 21.5636 41.6449 21.3282 41.8925 21.0504L42.544 20.3282C43.8599 18.8673 43.7459 16.6057 42.2899 15.2821H42.2932ZM29.4756 9.19016C29.1792 9.52025 28.8013 9.75883 28.3811 9.88629L28.1824 9.94512C28.0228 9.99414 27.8892 10.1085 27.8241 10.2654C27.7557 10.4223 27.7622 10.5955 27.8371 10.7491L27.9283 10.9354C29.3811 13.8637 31.8534 16.1416 34.886 17.341L35.0554 17.4097C35.1987 17.4652 35.3648 17.462 35.5049 17.3966C35.6449 17.3312 35.7557 17.207 35.8046 17.06L35.8632 16.8868C35.9707 16.5697 36.1368 16.2821 36.3616 16.0338L37.013 15.3115C37.4723 14.8049 38.1238 14.5108 38.8078 14.5108C39.4072 14.5108 39.9837 14.733 40.43 15.1383L41.5277 16.1351C42.5179 17.0338 42.5928 18.5699 41.7003 19.5634L41.0489 20.2857C40.8795 20.4752 40.6808 20.6354 40.443 20.7726C39.8436 21.142 39.0554 21.3054 38.2215 21.2269C31.0945 20.5864 25.1726 15.2134 23.8241 8.16068C23.5472 6.72594 24.0586 5.68012 24.4658 5.32715C24.4853 5.31081 24.5016 5.29447 24.5179 5.27486L24.5505 5.23891C24.5668 5.2193 24.5798 5.20296 24.5961 5.18008C24.6547 5.09511 24.7199 5.01341 24.7883 4.93497L25.4397 4.2127C25.8958 3.70613 26.5505 3.41526 27.2345 3.41526C27.8339 3.41526 28.4104 3.6375 28.8567 4.04275L29.9544 5.03628C30.4332 5.47095 30.7134 6.06577 30.7459 6.71614C30.7785 7.36324 30.557 7.9842 30.1238 8.46462L29.4723 9.18689L29.4756 9.19016Z" fill="white"/>
<path id="Vector_28" d="M44.7166 10.5073C44.7166 4.71274 40.0195 0 34.2443 0C33.7394 0 33.3257 0.411793 33.3257 0.921631C33.3257 1.43147 33.7362 1.83999 34.2443 1.83999C39.0065 1.83999 42.8827 5.72915 42.8827 10.5073C42.8827 11.0138 43.2932 11.4256 43.8013 11.4256C44.3094 11.4256 44.7166 11.0138 44.7166 10.5073ZM43.8013 10.9844C43.5375 10.9844 43.3257 10.7687 43.3257 10.5073C43.3257 5.48403 39.2541 1.39879 34.2476 1.39879C33.9837 1.39879 33.772 1.18309 33.772 0.921631C33.772 0.660176 33.987 0.444475 34.2476 0.444475C39.7785 0.444475 44.2801 4.96112 44.2801 10.5105C44.2801 10.7752 44.0651 10.9877 43.8046 10.9877L43.8013 10.9844Z" fill="white"/>
<path id="Vector_29" d="M34.1335 3.4218C33.6287 3.4218 33.2182 3.83359 33.2182 4.34016C33.2182 4.84673 33.6287 5.26179 34.1335 5.26179C37.0782 5.26179 39.4756 7.66719 39.4756 10.6216C39.4756 11.1282 39.886 11.5433 40.3941 11.5433C40.9023 11.5433 41.3127 11.1315 41.3127 10.6216C41.3127 6.65078 38.0945 3.4218 34.1368 3.4218H34.1335ZM40.3909 11.0988C40.127 11.0988 39.9153 10.8831 39.9153 10.6216C39.9153 7.42207 37.3225 4.82059 34.1335 4.82059C33.8697 4.82059 33.658 4.60489 33.658 4.34343C33.658 4.08197 33.873 3.86627 34.1335 3.86627C37.8469 3.86627 40.8664 6.89589 40.8664 10.6216C40.8664 10.8864 40.6515 11.0988 40.3909 11.0988Z" fill="white"/>
</g>
</g>
<defs>
<linearGradient id="paint0_linear_271_609" x1="41.85" y1="12.3031" x2="68.1993" y2="12.1524" gradientUnits="userSpaceOnUse">
<stop stop-color="#FFB900"/>
<stop offset="1" stop-color="#FF2745"/>
</linearGradient>
<clipPath id="clip0_271_609">
<rect width="113" height="48" fill="white"/>
</clipPath>
</defs>
</svg>
